<?xml version="1.0" encoding="UTF-8" standalone="no"?>
<svg width="140px" height="170px" viewBox="0 0 140 170" version="1.1" xmlns="http://www.w3.org/2000/svg" xmlns:xlink="http://www.w3.org/1999/xlink">
    <!-- Generator: Sketch 3.8.1 (29687) - http://www.bohemiancoding.com/sketch -->
    <title>Group 2</title>
    <desc>Created with Sketch.</desc>
    <defs></defs>
    <g id="Page-1" stroke="none" stroke-width="1" fill="none" fill-rule="evenodd">
        <g id="Group-2">
            <path d="M130.001,20 L10.001,20 C4.479,20 0.001,24.48 0.001,30 L0.001,160 C0.001,165.52 4.479,170 10.001,170 L130.001,170 C135.523,170 140.001,165.52 140.001,160 L140.001,30 C140.001,24.48 135.523,20 130.001,20" id="Body" fill="#FFFFFF"></path>
            <path d="M134.002,160 C134.002,162.21 132.211,164 130.002,164 L10.001,164 C7.792,164 6.001,162.21 6.001,160 L6.001,30 C6.001,27.79 7.792,26 10.001,26 L130.002,26 C132.211,26 134.002,27.79 134.002,30 L134.002,160 L134.002,160 Z M130.002,0 L10.001,0 C4.479,0 0.001,4.48 0.001,10 L0.001,160 C0.001,165.52 4.479,170 10.001,170 L130.002,170 C135.526,170 140.002,165.52 140.002,160 L140.002,10 C140.002,4.48 135.526,0 130.002,0 L130.002,0 Z" id="Frame" fill="#23AA7C"></path>
            <path d="M127.001,10 C125.345,10 124.001,11.34 124.001,13 C124.001,14.65 125.345,16 127.001,16 C128.658,16 130.001,14.65 130.001,13 C130.001,11.34 128.658,10 127.001,10 L127.001,10 Z M116.001,10 C114.345,10 113.001,11.34 113.001,13 C113.001,14.65 114.345,16 116.001,16 C117.658,16 119.001,14.65 119.001,13 C119.001,11.34 117.658,10 116.001,10 L116.001,10 Z M105.001,10 C103.345,10 102.001,11.34 102.001,13 C102.001,14.65 103.345,16 105.001,16 C106.658,16 108.001,14.65 108.001,13 C108.001,11.34 106.658,10 105.001,10 L105.001,10 Z" id="Dots" fill="#FFFFFF"></path>
            <path d="M101.001,146 L118.001,146 C119.105,146 120.001,145.1 120.001,144 C120.001,142.9 119.105,142 118.001,142 L101.001,142 C99.897,142 99.001,142.9 99.001,144 C99.001,145.1 99.897,146 101.001,146 L101.001,146 Z M122.001,150 L97.001,150 C95.897,150 95.001,150.89 95.001,152 C95.001,153.1 95.897,154 97.001,154 L122.001,154 C123.105,154 124.001,153.1 124.001,152 C124.001,150.89 123.105,150 122.001,150 L122.001,150 Z" id="TXT" fill="#BDE5D6"></path>
            <path d="M109.501,113 C103.149,113 98.001,118.15 98.001,124.5 C98.001,130.85 103.149,136 109.501,136 C115.853,136 121.001,130.85 121.001,124.5 C121.001,118.15 115.853,113 109.501,113" id="Container" fill="#23AA7C"></path>
            <path d="M109.487,129.01 C106.841,129.01 104.494,130.37 103.001,132.48 C104.776,134.06 107.03,135.01 109.487,135.01 C111.945,135.01 114.199,134.06 115.973,132.48 C114.481,130.37 112.135,129.01 109.487,129.01 L109.487,129.01 Z M109.487,128.02 C112.532,128.02 115,125.55 115,122.51 C115,119.47 112.532,117 109.487,117 C106.443,117 103.975,119.47 103.975,122.51 C103.975,125.55 106.443,128.02 109.487,128.02 L109.487,128.02 Z" id="Image" fill="#FFFFFF"></path>
            <path d="M62.001,146 L79.001,146 C80.105,146 81.001,145.1 81.001,144 C81.001,142.9 80.105,142 79.001,142 L62.001,142 C60.897,142 60.001,142.9 60.001,144 C60.001,145.1 60.897,146 62.001,146 L62.001,146 Z M83.001,150 L58.001,150 C56.897,150 56.001,150.89 56.001,152 C56.001,153.1 56.897,154 58.001,154 L83.001,154 C84.105,154 85.001,153.1 85.001,152 C85.001,150.89 84.105,150 83.001,150 L83.001,150 Z" id="TXT" fill="#BDE5D6"></path>
            <path d="M70.501,113 C64.149,113 59.001,118.15 59.001,124.5 C59.001,130.85 64.149,136 70.501,136 C76.853,136 82.001,130.85 82.001,124.5 C82.001,118.15 76.853,113 70.501,113" id="Container" fill="#23AA7C"></path>
            <path d="M70.487,129.01 C67.84,129.01 65.493,130.37 64.001,132.48 C65.775,134.06 68.03,135.01 70.487,135.01 C72.944,135.01 75.198,134.06 76.973,132.48 C75.48,130.37 73.135,129.01 70.487,129.01 L70.487,129.01 Z M70.487,128.02 C73.532,128.02 76,125.55 76,122.51 C76,119.47 73.532,117 70.487,117 C67.442,117 64.974,119.47 64.974,122.51 C64.974,125.55 67.442,128.02 70.487,128.02 L70.487,128.02 Z" id="Image" fill="#FFFFFF"></path>
            <path d="M23.001,146 L40.001,146 C41.105,146 42.001,145.1 42.001,144 C42.001,142.9 41.105,142 40.001,142 L23.001,142 C21.897,142 21.001,142.9 21.001,144 C21.001,145.1 21.897,146 23.001,146 L23.001,146 Z M44.001,150 L19.001,150 C17.897,150 17.001,150.89 17.001,152 C17.001,153.1 17.897,154 19.001,154 L44.001,154 C45.105,154 46.001,153.1 46.001,152 C46.001,150.89 45.105,150 44.001,150 L44.001,150 Z" id="TXT" fill="#BDE5D6"></path>
            <path d="M31.501,113 C25.149,113 20.001,118.15 20.001,124.5 C20.001,130.85 25.149,136 31.501,136 C37.853,136 43.001,130.85 43.001,124.5 C43.001,118.15 37.853,113 31.501,113" id="Container" fill="#23AA7C"></path>
            <path d="M31.488,129.01 C28.841,129.01 26.494,130.37 25.001,132.48 C26.776,134.06 29.03,135.01 31.488,135.01 C33.945,135.01 36.199,134.06 37.974,132.48 C36.481,130.37 34.135,129.01 31.488,129.01 L31.488,129.01 Z M31.488,128.02 C34.532,128.02 37,125.55 37,122.51 C37,119.47 34.532,117 31.488,117 C28.443,117 25.975,119.47 25.975,122.51 C25.975,125.55 28.443,128.02 31.488,128.02 L31.488,128.02 Z" id="Image" fill="#FFFFFF"></path>
            <path d="M101.001,99 L118.001,99 C119.105,99 120.001,98.1 120.001,97 C120.001,95.89 119.105,95 118.001,95 L101.001,95 C99.897,95 99.001,95.89 99.001,97 C99.001,98.1 99.897,99 101.001,99 L101.001,99 Z M122.001,103 L97.001,103 C95.897,103 95.001,103.9 95.001,105 C95.001,106.1 95.897,107 97.001,107 L122.001,107 C123.105,107 124.001,106.1 124.001,105 C124.001,103.9 123.105,103 122.001,103 L122.001,103 Z" id="TXT" fill="#BDE5D6"></path>
            <path d="M109.501,66 C103.149,66 98.001,71.15 98.001,77.5 C98.001,83.85 103.149,89 109.501,89 C115.853,89 121.001,83.85 121.001,77.5 C121.001,71.15 115.853,66 109.501,66" id="Container" fill="#23AA7C"></path>
            <path d="M109.487,82.01 C106.841,82.01 104.494,83.37 103.001,85.48 C104.776,87.06 107.03,88.01 109.487,88.01 C111.945,88.01 114.199,87.06 115.973,85.48 C114.481,83.37 112.135,82.01 109.487,82.01 L109.487,82.01 Z M109.487,81.021 C112.532,81.021 115,78.55 115,75.51 C115,72.47 112.532,70 109.487,70 C106.443,70 103.975,72.47 103.975,75.51 C103.975,78.55 106.443,81.021 109.487,81.021 L109.487,81.021 Z" id="Image" fill="#FFFFFF"></path>
            <path d="M62.001,99 L79.001,99 C80.105,99 81.001,98.1 81.001,97 C81.001,95.89 80.105,95 79.001,95 L62.001,95 C60.897,95 60.001,95.89 60.001,97 C60.001,98.1 60.897,99 62.001,99 L62.001,99 Z M83.001,103 L58.001,103 C56.897,103 56.001,103.9 56.001,105 C56.001,106.1 56.897,107 58.001,107 L83.001,107 C84.105,107 85.001,106.1 85.001,105 C85.001,103.9 84.105,103 83.001,103 L83.001,103 Z" id="TXT" fill="#BDE5D6"></path>
            <path d="M70.501,66 C64.149,66 59.001,71.15 59.001,77.5 C59.001,83.85 64.149,89 70.501,89 C76.853,89 82.001,83.85 82.001,77.5 C82.001,71.15 76.853,66 70.501,66" id="Container" fill="#23AA7C"></path>
            <path d="M70.487,82.01 C67.84,82.01 65.493,83.37 64.001,85.48 C65.775,87.06 68.03,88.01 70.487,88.01 C72.944,88.01 75.198,87.06 76.973,85.48 C75.48,83.37 73.135,82.01 70.487,82.01 L70.487,82.01 Z M70.487,81.021 C73.532,81.021 76,78.55 76,75.51 C76,72.47 73.532,70 70.487,70 C67.442,70 64.974,72.47 64.974,75.51 C64.974,78.55 67.442,81.021 70.487,81.021 L70.487,81.021 Z" id="Image" fill="#FFFFFF"></path>
            <path d="M23.001,99 L40.001,99 C41.105,99 42.001,98.1 42.001,97 C42.001,95.89 41.105,95 40.001,95 L23.001,95 C21.897,95 21.001,95.89 21.001,97 C21.001,98.1 21.897,99 23.001,99 L23.001,99 Z M44.001,103 L19.001,103 C17.897,103 17.001,103.9 17.001,105 C17.001,106.1 17.897,107 19.001,107 L44.001,107 C45.105,107 46.001,106.1 46.001,105 C46.001,103.9 45.105,103 44.001,103 L44.001,103 Z" id="Fill-427" fill="#BDE5D6"></path>
            <path d="M31.501,66 C25.149,66 20.001,71.15 20.001,77.5 C20.001,83.85 25.149,89 31.501,89 C37.853,89 43.001,83.85 43.001,77.5 C43.001,71.15 37.853,66 31.501,66" id="Container" fill="#23AA7C"></path>
            <path d="M31.488,82.01 C28.841,82.01 26.494,83.37 25.001,85.48 C26.776,87.06 29.03,88.01 31.488,88.01 C33.945,88.01 36.199,87.06 37.974,85.48 C36.481,83.37 34.135,82.01 31.488,82.01 L31.488,82.01 Z M31.488,81.021 C34.532,81.021 37,78.55 37,75.51 C37,72.47 34.532,70 31.488,70 C28.443,70 25.975,72.47 25.975,75.51 C25.975,78.55 28.443,81.021 31.488,81.021 L31.488,81.021 Z" id="Image" fill="#FFFFFF"></path>
            <path d="M96.001,48 L72.001,48 C70.897,48 70.001,48.89 70.001,50 C70.001,51.1 70.897,52 72.001,52 L96.001,52 C97.105,52 98.001,51.1 98.001,50 C98.001,48.89 97.105,48 96.001,48 L96.001,48 Z M64.001,48 L60.001,48 C58.897,48 58.001,48.89 58.001,50 C58.001,51.1 58.897,52 60.001,52 L64.001,52 C65.105,52 66.001,51.1 66.001,50 C66.001,48.89 65.105,48 64.001,48 L64.001,48 Z M52.501,48 L43.501,48 C42.673,48 42.001,48.67 42.001,49.5 L42.001,50.5 C42.001,51.33 42.673,52 43.501,52 L52.501,52 C53.329,52 54.001,51.33 54.001,50.5 L54.001,49.5 C54.001,48.67 53.329,48 52.501,48 L52.501,48 Z" id="TXT" fill="#55BD99"></path>
            <path d="M85.001,38 L55.001,38 C53.897,38 53.001,38.89 53.001,40 C53.001,41.1 53.897,42 55.001,42 L85.001,42 C86.105,42 87.001,41.1 87.001,40 C87.001,38.89 86.105,38 85.001,38" id="H" fill="#BDE5D6"></path>
        </g>
    </g>
</svg>