<?xml version="1.0" encoding="UTF-8" standalone="no"?>
<svg width="141px" height="171px" viewBox="0 0 141 171" version="1.1" xmlns="http://www.w3.org/2000/svg" xmlns:xlink="http://www.w3.org/1999/xlink">
    <!-- Generator: Sketch 3.8.1 (29687) - http://www.bohemiancoding.com/sketch -->
    <title>Group 55</title>
    <desc>Created with Sketch.</desc>
    <defs></defs>
    <g id="Page-1" stroke="none" stroke-width="1" fill="none" fill-rule="evenodd">
        <g id="Group-55">
            <path d="M130.031,20.9601915 L10.031,20.9601915 C4.508,20.9601915 0.031,25.4401915 0.031,30.9601915 L0.031,160.960191 C0.031,166.480191 4.508,170.960191 10.031,170.960191 L130.031,170.960191 C135.554,170.960191 140.031,166.480191 140.031,160.960191 L140.031,30.9601915 C140.031,25.4401915 135.554,20.9601915 130.031,20.9601915" id="Body" fill="#FFFFFF"></path>
            <path d="M134.02,160.960191 C134.02,163.170191 132.229,164.960191 130.02,164.960191 L10.019,164.960191 C7.81,164.960191 6.019,163.170191 6.019,160.960191 L6.019,30.9601915 C6.019,28.7501915 7.81,26.9601915 10.019,26.9601915 L130.02,26.9601915 C132.229,26.9601915 134.02,28.7501915 134.02,30.9601915 L134.02,160.960191 L134.02,160.960191 Z M130.02,0.960191455 L10.019,0.960191455 C4.496,0.960191455 0.019,5.44019146 0.019,10.9601915 L0.019,160.960191 C0.019,166.480191 4.496,170.960191 10.019,170.960191 L130.02,170.960191 C135.543,170.960191 140.02,166.480191 140.02,160.960191 L140.02,10.9601915 C140.02,5.44019146 135.543,0.960191455 130.02,0.960191455 L130.02,0.960191455 Z" id="Frame" fill="#23AA7C"></path>
            <path d="M127.02,10.9601915 C125.364,10.9601915 124.02,12.3001915 124.02,13.9601915 C124.02,15.6101915 125.364,16.9601915 127.02,16.9601915 C128.677,16.9601915 130.02,15.6101915 130.02,13.9601915 C130.02,12.3001915 128.677,10.9601915 127.02,10.9601915 L127.02,10.9601915 Z M116.02,10.9601915 C114.364,10.9601915 113.02,12.3001915 113.02,13.9601915 C113.02,15.6101915 114.364,16.9601915 116.02,16.9601915 C117.677,16.9601915 119.02,15.6101915 119.02,13.9601915 C119.02,12.3001915 117.677,10.9601915 116.02,10.9601915 L116.02,10.9601915 Z M105.02,10.9601915 C103.364,10.9601915 102.02,12.3001915 102.02,13.9601915 C102.02,15.6101915 103.364,16.9601915 105.02,16.9601915 C106.677,16.9601915 108.02,15.6101915 108.02,13.9601915 C108.02,12.3001915 106.677,10.9601915 105.02,10.9601915 L105.02,10.9601915 Z" id="Dots" fill="#FFFFFF"></path>
            <path d="M35.031,36.9601915 C24.537,36.9601915 16.031,45.4701915 16.031,55.9601915 C16.031,66.4501915 24.537,74.9601915 35.031,74.9601915 C45.524,74.9601915 54.031,66.4501915 54.031,55.9601915 C54.031,45.4701915 45.524,36.9601915 35.031,36.9601915" id="Container" fill="#23AA7C"></path>
            <path d="M35.019,62.9901915 C30.159,62.9901915 25.852,65.2601915 23.111,68.7501915 C26.37,71.3801915 30.508,72.9601915 35.019,72.9601915 C39.531,72.9601915 43.669,71.3801915 46.928,68.7501915 C44.187,65.2601915 39.88,62.9901915 35.019,62.9901915 L35.019,62.9901915 Z M35.019,61.5501915 C40.003,61.5501915 44.043,57.6101915 44.043,52.7501915 C44.043,47.9001915 40.003,43.9601915 35.019,43.9601915 C30.036,43.9601915 25.996,47.9001915 25.996,52.7501915 C25.996,57.6101915 30.036,61.5501915 35.019,61.5501915 L35.019,61.5501915 Z" id="Image" fill="#FFFFFF"></path>
            <path d="M122.031,142.960191 L93.031,142.960191 C91.927,142.960191 91.031,143.860191 91.031,144.960191 C91.031,146.060191 91.927,146.960191 93.031,146.960191 L122.031,146.960191 C123.135,146.960191 124.031,146.060191 124.031,144.960191 C124.031,143.860191 123.135,142.960191 122.031,142.960191 L122.031,142.960191 Z M85.031,142.960191 L81.031,142.960191 C79.927,142.960191 79.031,143.860191 79.031,144.960191 C79.031,146.060191 79.927,146.960191 81.031,146.960191 L85.031,146.960191 C86.135,146.960191 87.031,146.060191 87.031,144.960191 C87.031,143.860191 86.135,142.960191 85.031,142.960191 L85.031,142.960191 Z M66.531,146.960191 L73.531,146.960191 C74.36,146.960191 75.031,146.290191 75.031,145.460191 L75.031,144.460191 C75.031,143.630191 74.36,142.960191 73.531,142.960191 L66.531,142.960191 C65.702,142.960191 65.031,143.630191 65.031,144.460191 L65.031,145.460191 C65.031,146.290191 65.702,146.960191 66.531,146.960191 L66.531,146.960191 Z M122.031,150.960191 L113.031,150.960191 C111.927,150.960191 111.031,151.850191 111.031,152.960191 C111.031,154.060191 111.927,154.960191 113.031,154.960191 L122.031,154.960191 C123.135,154.960191 124.031,154.060191 124.031,152.960191 C124.031,151.850191 123.135,150.960191 122.031,150.960191 L122.031,150.960191 Z M105.031,150.960191 L101.031,150.960191 C99.927,150.960191 99.031,151.850191 99.031,152.960191 C99.031,154.060191 99.927,154.960191 101.031,154.960191 L105.031,154.960191 C106.135,154.960191 107.031,154.060191 107.031,152.960191 C107.031,151.850191 106.135,150.960191 105.031,150.960191 L105.031,150.960191 Z M93.531,150.960191 L66.531,150.960191 C65.702,150.960191 65.031,151.630191 65.031,152.460191 L65.031,153.460191 C65.031,154.290191 65.702,154.960191 66.531,154.960191 L93.531,154.960191 C94.359,154.960191 95.031,154.290191 95.031,153.460191 L95.031,152.460191 C95.031,151.630191 94.359,150.960191 93.531,150.960191 L93.531,150.960191 Z M122.031,110.960191 L113.031,110.960191 C111.927,110.960191 111.031,111.850191 111.031,112.960191 C111.031,114.060191 111.927,114.960191 113.031,114.960191 L122.031,114.960191 C123.135,114.960191 124.031,114.060191 124.031,112.960191 C124.031,111.850191 123.135,110.960191 122.031,110.960191 L122.031,110.960191 Z M107.031,112.960191 C107.031,111.850191 106.135,110.960191 105.031,110.960191 L95.031,110.960191 C93.927,110.960191 93.031,111.850191 93.031,112.960191 C93.031,114.060191 93.927,114.960191 95.031,114.960191 L105.031,114.960191 C106.135,114.960191 107.031,114.060191 107.031,112.960191 L107.031,112.960191 Z M66.531,114.960191 L87.531,114.960191 C88.36,114.960191 89.031,114.290191 89.031,113.460191 L89.031,112.460191 C89.031,111.630191 88.36,110.960191 87.531,110.960191 L66.531,110.960191 C65.702,110.960191 65.031,111.630191 65.031,112.460191 L65.031,113.460191 C65.031,114.290191 65.702,114.960191 66.531,114.960191 L66.531,114.960191 Z M122.031,118.960191 L103.031,118.960191 C101.927,118.960191 101.031,119.860191 101.031,120.960191 C101.031,122.060191 101.927,122.960191 103.031,122.960191 L122.031,122.960191 C123.135,122.960191 124.031,122.060191 124.031,120.960191 C124.031,119.860191 123.135,118.960191 122.031,118.960191 L122.031,118.960191 Z M97.031,120.960191 C97.031,119.860191 96.135,118.960191 95.031,118.960191 L85.031,118.960191 C83.927,118.960191 83.031,119.860191 83.031,120.960191 C83.031,122.060191 83.927,122.960191 85.031,122.960191 L95.031,122.960191 C96.135,122.960191 97.031,122.060191 97.031,120.960191 L97.031,120.960191 Z M66.531,122.960191 L77.531,122.960191 C78.359,122.960191 79.031,122.290191 79.031,121.460191 L79.031,120.460191 C79.031,119.630191 78.359,118.960191 77.531,118.960191 L66.531,118.960191 C65.702,118.960191 65.031,119.630191 65.031,120.460191 L65.031,121.460191 C65.031,122.290191 65.702,122.960191 66.531,122.960191 L66.531,122.960191 Z M122.031,126.960191 L93.031,126.960191 C91.927,126.960191 91.031,127.850191 91.031,128.960191 C91.031,130.060191 91.927,130.960191 93.031,130.960191 L122.031,130.960191 C123.135,130.960191 124.031,130.060191 124.031,128.960191 C124.031,127.850191 123.135,126.960191 122.031,126.960191 L122.031,126.960191 Z M85.031,126.960191 L81.031,126.960191 C79.927,126.960191 79.031,127.850191 79.031,128.960191 C79.031,130.060191 79.927,130.960191 81.031,130.960191 L85.031,130.960191 C86.135,130.960191 87.031,130.060191 87.031,128.960191 C87.031,127.850191 86.135,126.960191 85.031,126.960191 L85.031,126.960191 Z M66.531,130.960191 L73.531,130.960191 C74.36,130.960191 75.031,130.290191 75.031,129.460191 L75.031,128.460191 C75.031,127.630191 74.36,126.960191 73.531,126.960191 L66.531,126.960191 C65.702,126.960191 65.031,127.630191 65.031,128.460191 L65.031,129.460191 C65.031,130.290191 65.702,130.960191 66.531,130.960191 L66.531,130.960191 Z M122.031,134.960191 L103.031,134.960191 C101.927,134.960191 101.031,135.850191 101.031,136.960191 C101.031,138.060191 101.927,138.960191 103.031,138.960191 L122.031,138.960191 C123.135,138.960191 124.031,138.060191 124.031,136.960191 C124.031,135.850191 123.135,134.960191 122.031,134.960191 L122.031,134.960191 Z M91.031,138.960191 L95.031,138.960191 C96.135,138.960191 97.031,138.060191 97.031,136.960191 C97.031,135.850191 96.135,134.960191 95.031,134.960191 L91.031,134.960191 C89.927,134.960191 89.031,135.850191 89.031,136.960191 C89.031,138.060191 89.927,138.960191 91.031,138.960191 L91.031,138.960191 Z M66.531,138.960191 L83.531,138.960191 C84.359,138.960191 85.031,138.290191 85.031,137.460191 L85.031,136.460191 C85.031,135.630191 84.359,134.960191 83.531,134.960191 L66.531,134.960191 C65.702,134.960191 65.031,135.630191 65.031,136.460191 L65.031,137.460191 C65.031,138.290191 65.702,138.960191 66.531,138.960191 L66.531,138.960191 Z M67.031,106.960191 L76.031,106.960191 C77.135,106.960191 78.031,106.060191 78.031,104.960191 C78.031,103.850191 77.135,102.960191 76.031,102.960191 L67.031,102.960191 C65.927,102.960191 65.031,103.850191 65.031,104.960191 C65.031,106.060191 65.927,106.960191 67.031,106.960191 L67.031,106.960191 Z M94.031,102.960191 L84.031,102.960191 C82.927,102.960191 82.031,103.850191 82.031,104.960191 C82.031,106.060191 82.927,106.960191 84.031,106.960191 L94.031,106.960191 C95.135,106.960191 96.031,106.060191 96.031,104.960191 C96.031,103.850191 95.135,102.960191 94.031,102.960191 L94.031,102.960191 Z M122.531,102.960191 L101.531,102.960191 C100.702,102.960191 100.031,103.630191 100.031,104.460191 L100.031,105.460191 C100.031,106.290191 100.702,106.960191 101.531,106.960191 L122.531,106.960191 C123.359,106.960191 124.031,106.290191 124.031,105.460191 L124.031,104.460191 C124.031,103.630191 123.359,102.960191 122.531,102.960191 L122.531,102.960191 Z M67.031,98.9601915 L86.031,98.9601915 C87.135,98.9601915 88.031,98.0601915 88.031,96.9601915 C88.031,95.8601915 87.135,94.9601915 86.031,94.9601915 L67.031,94.9601915 C65.927,94.9601915 65.031,95.8601915 65.031,96.9601915 C65.031,98.0601915 65.927,98.9601915 67.031,98.9601915 L67.031,98.9601915 Z M92.031,96.9601915 C92.031,98.0601915 92.927,98.9601915 94.031,98.9601915 L104.031,98.9601915 C105.135,98.9601915 106.031,98.0601915 106.031,96.9601915 C106.031,95.8601915 105.135,94.9601915 104.031,94.9601915 L94.031,94.9601915 C92.927,94.9601915 92.031,95.8601915 92.031,96.9601915 L92.031,96.9601915 Z M122.531,94.9601915 L111.531,94.9601915 C110.702,94.9601915 110.031,95.6301915 110.031,96.4601915 L110.031,97.4601915 C110.031,98.2901915 110.702,98.9601915 111.531,98.9601915 L122.531,98.9601915 C123.359,98.9601915 124.031,98.2901915 124.031,97.4601915 L124.031,96.4601915 C124.031,95.6301915 123.359,94.9601915 122.531,94.9601915 L122.531,94.9601915 Z M67.031,90.9601915 L96.031,90.9601915 C97.135,90.9601915 98.031,90.0601915 98.031,88.9601915 C98.031,87.8501915 97.135,86.9601915 96.031,86.9601915 L67.031,86.9601915 C65.927,86.9601915 65.031,87.8501915 65.031,88.9601915 C65.031,90.0601915 65.927,90.9601915 67.031,90.9601915 L67.031,90.9601915 Z M108.031,90.9601915 C109.135,90.9601915 110.031,90.0601915 110.031,88.9601915 C110.031,87.8501915 109.135,86.9601915 108.031,86.9601915 L104.031,86.9601915 C102.927,86.9601915 102.031,87.8501915 102.031,88.9601915 C102.031,90.0601915 102.927,90.9601915 104.031,90.9601915 L108.031,90.9601915 L108.031,90.9601915 Z M122.531,86.9601915 L115.531,86.9601915 C114.702,86.9601915 114.031,87.6301915 114.031,88.4601915 L114.031,89.4601915 C114.031,90.2901915 114.702,90.9601915 115.531,90.9601915 L122.531,90.9601915 C123.359,90.9601915 124.031,90.2901915 124.031,89.4601915 L124.031,88.4601915 C124.031,87.6301915 123.359,86.9601915 122.531,86.9601915 L122.531,86.9601915 Z M67.031,82.9601915 L86.031,82.9601915 C87.135,82.9601915 88.031,82.0601915 88.031,80.9601915 C88.031,79.8501915 87.135,78.9601915 86.031,78.9601915 L67.031,78.9601915 C65.927,78.9601915 65.031,79.8501915 65.031,80.9601915 C65.031,82.0601915 65.927,82.9601915 67.031,82.9601915 L67.031,82.9601915 Z M98.031,78.9601915 L94.031,78.9601915 C92.927,78.9601915 92.031,79.8501915 92.031,80.9601915 C92.031,82.0601915 92.927,82.9601915 94.031,82.9601915 L98.031,82.9601915 C99.135,82.9601915 100.031,82.0601915 100.031,80.9601915 C100.031,79.8501915 99.135,78.9601915 98.031,78.9601915 L98.031,78.9601915 Z M122.531,78.9601915 L105.531,78.9601915 C104.702,78.9601915 104.031,79.6301915 104.031,80.4601915 L104.031,81.4601915 C104.031,82.2901915 104.702,82.9601915 105.531,82.9601915 L122.531,82.9601915 C123.359,82.9601915 124.031,82.2901915 124.031,81.4601915 L124.031,80.4601915 C124.031,79.6301915 123.359,78.9601915 122.531,78.9601915 L122.531,78.9601915 Z M122.031,70.9601915 L67.031,70.9601915 C65.927,70.9601915 65.031,71.8601915 65.031,72.9601915 C65.031,74.0601915 65.927,74.9601915 67.031,74.9601915 L122.031,74.9601915 C123.135,74.9601915 124.031,74.0601915 124.031,72.9601915 C124.031,71.8601915 123.135,70.9601915 122.031,70.9601915 L122.031,70.9601915 Z M118.031,58.9601915 L122.031,58.9601915 C123.135,58.9601915 124.031,58.0601915 124.031,56.9601915 C124.031,55.8501915 123.135,54.9601915 122.031,54.9601915 L118.031,54.9601915 C116.927,54.9601915 116.031,55.8501915 116.031,56.9601915 C116.031,58.0601915 116.927,58.9601915 118.031,58.9601915 L118.031,58.9601915 Z M106.031,58.9601915 L110.031,58.9601915 C111.135,58.9601915 112.031,58.0601915 112.031,56.9601915 C112.031,55.8501915 111.135,54.9601915 110.031,54.9601915 L106.031,54.9601915 C104.927,54.9601915 104.031,55.8501915 104.031,56.9601915 C104.031,58.0601915 104.927,58.9601915 106.031,58.9601915 L106.031,58.9601915 Z M66.531,58.9601915 L98.531,58.9601915 C99.359,58.9601915 100.031,58.2901915 100.031,57.4601915 L100.031,56.4601915 C100.031,55.6301915 99.359,54.9601915 98.531,54.9601915 L66.531,54.9601915 C65.702,54.9601915 65.031,55.6301915 65.031,56.4601915 L65.031,57.4601915 C65.031,58.2901915 65.702,58.9601915 66.531,58.9601915 L66.531,58.9601915 Z M122.031,62.9601915 L67.031,62.9601915 C65.927,62.9601915 65.031,63.8501915 65.031,64.9601915 C65.031,66.0601915 65.927,66.9601915 67.031,66.9601915 L122.031,66.9601915 C123.135,66.9601915 124.031,66.0601915 124.031,64.9601915 C124.031,63.8501915 123.135,62.9601915 122.031,62.9601915 L122.031,62.9601915 Z" id="TXT" fill="#BDE5D6"></path>
            <path d="M97.031,44.9601915 L67.031,44.9601915 C65.927,44.9601915 65.031,45.8601915 65.031,46.9601915 C65.031,48.0601915 65.927,48.9601915 67.031,48.9601915 L97.031,48.9601915 C98.135,48.9601915 99.031,48.0601915 99.031,46.9601915 C99.031,45.8601915 98.135,44.9601915 97.031,44.9601915" id="H" fill="#55BD99"></path>
        </g>
    </g>
</svg>