<?xml version="1.0" encoding="UTF-8" standalone="no"?>
<svg width="140px" height="170px" viewBox="0 0 140 170" version="1.1" xmlns="http://www.w3.org/2000/svg" xmlns:xlink="http://www.w3.org/1999/xlink">
    <!-- Generator: Sketch 3.8.1 (29687) - http://www.bohemiancoding.com/sketch -->
    <title>Group 13</title>
    <desc>Created with Sketch.</desc>
    <defs></defs>
    <g id="Page-1" stroke="none" stroke-width="1" fill="none" fill-rule="evenodd">
        <g id="Group-13">
            <path d="M129.983,20 L10.014,20 C4.491,20 0.014,24.48 0.014,30 L0.014,160 C0.014,165.52 4.491,170 10.014,170 L129.983,170 C135.505,170 139.983,165.52 139.983,160 L139.983,30 C139.983,24.48 135.505,20 129.983,20" id="Body" fill="#FFFFFF"></path>
            <path d="M134.001,160 C134.001,162.21 132.211,164 130.001,164 L10.001,164 C7.791,164 6.001,162.21 6.001,160 L6.001,30 C6.001,27.79 7.791,26 10.001,26 L130.001,26 C132.211,26 134.001,27.79 134.001,30 L134.001,160 L134.001,160 Z M130.001,0 L10.001,0 C4.478,0 0,4.48 0,10 L0,160 C0,165.52 4.478,170 10.001,170 L130.001,170 C135.525,170 140.002,165.52 140.002,160 L140.002,10 C140.002,4.48 135.525,0 130.001,0 L130.001,0 Z" id="Frame" fill="#23AA7C"></path>
            <path d="M116.001,10 C114.345,10 113.001,11.34 113.001,13 C113.001,14.66 114.345,16 116.001,16 C117.659,16 119.001,14.66 119.001,13 C119.001,11.34 117.659,10 116.001,10 L116.001,10 Z M127.001,10 C125.345,10 124.001,11.34 124.001,13 C124.001,14.66 125.345,16 127.001,16 C128.659,16 130.001,14.66 130.001,13 C130.001,11.34 128.659,10 127.001,10 L127.001,10 Z M105.001,10 C103.344,10 102.001,11.34 102.001,13 C102.001,14.66 103.344,16 105.001,16 C106.659,16 108.001,14.66 108.001,13 C108.001,11.34 106.659,10 105.001,10 L105.001,10 Z" id="Dots" fill="#FFFFFF"></path>
            <path d="M103.014,62 L37.014,62 C35.91,62 35.014,62.89 35.014,64 L35.014,138 C35.014,139.1 35.91,140 37.014,140 L103.014,140 C104.118,140 105.014,139.1 105.014,138 L105.014,64 C105.014,62.89 104.118,62 103.014,62" id="Container" fill="#BDE5D6"></path>
            <path d="M93.014,124 L47.014,124 C45.91,124 45.014,124.89 45.014,126 L45.014,130 C45.014,131.1 45.91,132 47.014,132 L93.014,132 C94.118,132 95.014,131.1 95.014,130 L95.014,126 C95.014,124.89 94.118,124 93.014,124" id="BTN" fill="#23AA7C"></path>
            <path d="M93.014,96 L47.014,96 C45.91,96 45.014,96.9 45.014,98 L45.014,102 C45.014,103.1 45.91,104 47.014,104 L93.014,104 C94.118,104 95.014,103.1 95.014,102 L95.014,98 C95.014,96.9 94.118,96 93.014,96 Z M93.014,108 L47.014,108 C45.91,108 45.014,108.9 45.014,110 L45.014,114 C45.014,115.1 45.91,116 47.014,116 L93.014,116 C94.118,116 95.014,115.1 95.014,114 L95.014,110 C95.014,108.9 94.118,108 93.014,108 Z M93.014,72 L47.014,72 C45.91,72 45.014,72.9 45.014,74 L45.014,78 C45.014,79.1 45.91,80 47.014,80 L93.014,80 C94.118,80 95.014,79.1 95.014,78 L95.014,74 C95.014,72.9 94.118,72 93.014,72 Z M93.014,84 L47.014,84 C45.91,84 45.014,84.9 45.014,86 L45.014,90 C45.014,91.1 45.91,92 47.014,92 L93.014,92 C94.118,92 95.014,91.1 95.014,90 L95.014,86 C95.014,84.9 94.118,84 93.014,84 Z" id="Inputs" fill="#55BD99"></path>
            <path d="M83.983,48 L55.983,48 C54.878,48 53.983,48.9 53.983,50 C53.983,51.1 54.878,52 55.983,52 L83.983,52 C85.087,52 85.983,51.1 85.983,50 C85.983,48.9 85.087,48 83.983,48" id="H" fill="#55BD99"></path>
        </g>
    </g>
</svg>