<?xml version="1.0" encoding="UTF-8" standalone="no"?>
<svg width="141px" height="170px" viewBox="0 0 141 170" version="1.1" xmlns="http://www.w3.org/2000/svg" xmlns:xlink="http://www.w3.org/1999/xlink">
    <!-- Generator: Sketch 3.8.1 (29687) - http://www.bohemiancoding.com/sketch -->
    <title>Group 14</title>
    <desc>Created with Sketch.</desc>
    <defs></defs>
    <g id="Page-1" stroke="none" stroke-width="1" fill="none" fill-rule="evenodd">
        <g id="Group-14">
            <path d="M130.007,20 L10.007,20 C4.485,20 0.007,24.48 0.007,30 L0.007,160 C0.007,165.52 4.485,170 10.007,170 L130.007,170 C135.529,170 140.007,165.52 140.007,160 L140.007,30 C140.007,24.48 135.529,20 130.007,20" id="Body" fill="#FFFFFF"></path>
            <path d="M134.001,160 C134.001,162.21 132.21,164 130.001,164 L10,164 C7.791,164 6,162.21 6,160 L6,30 C6,27.79 7.791,26 10,26 L130.001,26 C132.21,26 134.001,27.79 134.001,30 L134.001,160 L134.001,160 Z M130.001,0 L10,0 C4.478,0 0,4.48 0,10 L0,160 C0,165.52 4.478,170 10,170 L130.001,170 C135.525,170 140.001,165.52 140.001,160 L140.001,10 C140.001,4.48 135.525,0 130.001,0 L130.001,0 Z" id="Frame" fill="#23AA7C"></path>
            <path d="M116.001,10 C114.345,10 113.001,11.34 113.001,13 C113.001,14.66 114.345,16 116.001,16 C117.658,16 119.001,14.66 119.001,13 C119.001,11.34 117.658,10 116.001,10 L116.001,10 Z M127.001,10 C125.345,10 124.001,11.34 124.001,13 C124.001,14.66 125.345,16 127.001,16 C128.658,16 130.001,14.66 130.001,13 C130.001,11.34 128.658,10 127.001,10 L127.001,10 Z M105.001,10 C103.345,10 102.001,11.34 102.001,13 C102.001,14.66 103.345,16 105.001,16 C106.658,16 108.001,14.66 108.001,13 C108.001,11.34 106.658,10 105.001,10 L105.001,10 Z" id="Dots" fill="#FFFFFF"></path>
            <path d="M57.007,155 L53.007,155 C51.903,155 51.007,155.89 51.007,157 C51.007,158.1 51.903,159 53.007,159 L57.007,159 C58.111,159 59.007,158.1 59.007,157 C59.007,155.89 58.111,155 57.007,155 L57.007,155 Z M87.007,155 L65.007,155 C63.903,155 63.007,155.89 63.007,157 C63.007,158.1 63.903,159 65.007,159 L87.007,159 C88.111,159 89.007,158.1 89.007,157 C89.007,155.89 88.111,155 87.007,155 L87.007,155 Z M87.007,147 L83.007,147 C81.903,147 81.007,147.9 81.007,149 C81.007,150.1 81.903,151 83.007,151 L87.007,151 C88.111,151 89.007,150.1 89.007,149 C89.007,147.9 88.111,147 87.007,147 L87.007,147 Z M53.007,151 L75.007,151 C76.111,151 77.007,150.1 77.007,149 C77.007,147.9 76.111,147 75.007,147 L53.007,147 C51.903,147 51.007,147.9 51.007,149 C51.007,150.1 51.903,151 53.007,151 L53.007,151 Z M87.007,139 L53.007,139 C51.903,139 51.007,139.89 51.007,141 C51.007,142.1 51.903,143 53.007,143 L87.007,143 C88.111,143 89.007,142.1 89.007,141 C89.007,139.89 88.111,139 87.007,139 L87.007,139 Z M53.007,135 L57.007,135 C58.111,135 59.007,134.1 59.007,133 C59.007,131.89 58.111,131 57.007,131 L53.007,131 C51.903,131 51.007,131.89 51.007,133 C51.007,134.1 51.903,135 53.007,135 L53.007,135 Z M87.007,131 L65.007,131 C63.903,131 63.007,131.89 63.007,133 C63.007,134.1 63.903,135 65.007,135 L87.007,135 C88.111,135 89.007,134.1 89.007,133 C89.007,131.89 88.111,131 87.007,131 L87.007,131 Z M53.007,119 L87.007,119 C88.111,119 89.007,118.1 89.007,117 C89.007,115.89 88.111,115 87.007,115 L53.007,115 C51.903,115 51.007,115.89 51.007,117 C51.007,118.1 51.903,119 53.007,119 L53.007,119 Z M87.007,123 L83.007,123 C81.903,123 81.007,123.9 81.007,125 C81.007,126.1 81.903,127 83.007,127 L87.007,127 C88.111,127 89.007,126.1 89.007,125 C89.007,123.9 88.111,123 87.007,123 L87.007,123 Z M53.007,127 L75.007,127 C76.111,127 77.007,126.1 77.007,125 C77.007,123.9 76.111,123 75.007,123 L53.007,123 C51.903,123 51.007,123.9 51.007,125 C51.007,126.1 51.903,127 53.007,127 L53.007,127 Z" id="TXT" fill="#BDE5D6"></path>
            <path d="M76.007,107 L53.007,107 C51.903,107 51.007,107.89 51.007,109 C51.007,110.1 51.903,111 53.007,111 L76.007,111 C77.111,111 78.007,110.1 78.007,109 C78.007,107.89 77.111,107 76.007,107" id="H" fill="#23AA7C"></path>
            <path d="M85.007,70 L55.007,70 C52.798,70 51.007,71.79 51.007,74 L51.007,97 C51.007,99.21 52.798,101 55.007,101 L85.007,101 C87.216,101 89.007,99.21 89.007,97 L89.007,74 C89.007,71.79 87.216,70 85.007,70" id="Container" fill="#BDE5D6"></path>
            <path d="M74.539,82.82 C75.587,82.82 76.436,81.96 76.436,80.91 C76.436,79.85 75.587,79 74.539,79 C73.492,79 72.643,79.85 72.643,80.91 C72.643,81.96 73.492,82.82 74.539,82.82 L74.539,82.82 Z M78.964,90.77 C77.363,90.08 76.583,88.13 76.119,86.95 C75.422,85.18 73.973,85.54 72.959,86.63 C71.945,87.72 71.379,87.59 71.379,87.59 C67.1,87.45 66.704,78.16 63.794,82.18 C60.884,86.2 60.001,93 60.001,93 L79.912,93 C79.912,93 80.005,91.22 78.964,90.77 L78.964,90.77 Z" id="Image" fill="#FFFFFF"></path>
            <path d="M128.007,94 L95.007,94 C93.903,94 93.007,94.89 93.007,96 C93.007,97.1 93.903,98 95.007,98 L128.007,98 C129.111,98 130.007,97.1 130.007,96 C130.007,94.89 129.111,94 128.007,94 L128.007,94 Z M128.007,86 L114.007,86 C112.903,86 112.007,86.9 112.007,88 C112.007,89.1 112.903,90 114.007,90 L128.007,90 C129.111,90 130.007,89.1 130.007,88 C130.007,86.9 129.111,86 128.007,86 L128.007,86 Z M95.007,90 L106.007,90 C107.111,90 108.007,89.1 108.007,88 C108.007,86.9 107.111,86 106.007,86 L95.007,86 C93.903,86 93.007,86.9 93.007,88 C93.007,89.1 93.903,90 95.007,90 L95.007,90 Z M128.007,78 L95.007,78 C93.903,78 93.007,78.89 93.007,80 C93.007,81.1 93.903,82 95.007,82 L128.007,82 C129.111,82 130.007,81.1 130.007,80 C130.007,78.89 129.111,78 128.007,78 L128.007,78 Z M128.007,70 L124.007,70 C122.903,70 122.007,70.89 122.007,72 C122.007,73.1 122.903,74 124.007,74 L128.007,74 C129.111,74 130.007,73.1 130.007,72 C130.007,70.89 129.111,70 128.007,70 L128.007,70 Z M95.007,74 L116.007,74 C117.111,74 118.007,73.1 118.007,72 C118.007,70.89 117.111,70 116.007,70 L95.007,70 C93.903,70 93.007,70.89 93.007,72 C93.007,73.1 93.903,74 95.007,74 L95.007,74 Z M128.007,62 L95.007,62 C93.903,62 93.007,62.9 93.007,64 C93.007,65.1 93.903,66 95.007,66 L128.007,66 C129.111,66 130.007,65.1 130.007,64 C130.007,62.9 129.111,62 128.007,62 L128.007,62 Z M95.007,58 L109.007,58 C110.111,58 111.007,57.1 111.007,56 C111.007,54.89 110.111,54 109.007,54 L95.007,54 C93.903,54 93.007,54.89 93.007,56 C93.007,57.1 93.903,58 95.007,58 L95.007,58 Z M128.007,54 L117.007,54 C115.903,54 115.007,54.89 115.007,56 C115.007,57.1 115.903,58 117.007,58 L128.007,58 C129.111,58 130.007,57.1 130.007,56 C130.007,54.89 129.111,54 128.007,54 L128.007,54 Z M128.007,46 L95.007,46 C93.903,46 93.007,46.89 93.007,48 C93.007,49.1 93.903,50 95.007,50 L128.007,50 C129.111,50 130.007,49.1 130.007,48 C130.007,46.89 129.111,46 128.007,46 L128.007,46 Z M95.007,42 L99.007,42 C100.111,42 101.007,41.1 101.007,40 C101.007,38.9 100.111,38 99.007,38 L95.007,38 C93.903,38 93.007,38.9 93.007,40 C93.007,41.1 93.903,42 95.007,42 L95.007,42 Z M107.007,42 L128.007,42 C129.111,42 130.007,41.1 130.007,40 C130.007,38.9 129.111,38 128.007,38 L107.007,38 C105.903,38 105.007,38.9 105.007,40 C105.007,41.1 105.903,42 107.007,42 L107.007,42 Z" id="TXT" fill="#BDE5D6"></path>
            <path d="M108.007,30 L95.007,30 C93.903,30 93.007,30.89 93.007,32 C93.007,33.1 93.903,34 95.007,34 L108.007,34 C109.111,34 110.007,33.1 110.007,32 C110.007,30.89 109.111,30 108.007,30 L108.007,30 Z M119.007,30 L116.007,30 C114.903,30 114.007,30.89 114.007,32 C114.007,33.1 114.903,34 116.007,34 L119.007,34 C120.111,34 121.007,33.1 121.007,32 C121.007,30.89 120.111,30 119.007,30 L119.007,30 Z" id="H" fill="#23AA7C"></path>
            <path d="M77.007,62 L53.007,62 C51.903,62 51.007,62.9 51.007,64 C51.007,65.1 51.903,66 53.007,66 L77.007,66 C78.111,66 79.007,65.1 79.007,64 C79.007,62.9 78.111,62 77.007,62 L77.007,62 Z M53.007,58 L57.007,58 C58.111,58 59.007,57.1 59.007,56 C59.007,54.89 58.111,54 57.007,54 L53.007,54 C51.903,54 51.007,54.89 51.007,56 C51.007,57.1 51.903,58 53.007,58 L53.007,58 Z M87.007,54 L65.007,54 C63.903,54 63.007,54.89 63.007,56 C63.007,57.1 63.903,58 65.007,58 L87.007,58 C88.111,58 89.007,57.1 89.007,56 C89.007,54.89 88.111,54 87.007,54 L87.007,54 Z M53.007,42 L87.007,42 C88.111,42 89.007,41.1 89.007,40 C89.007,38.9 88.111,38 87.007,38 L53.007,38 C51.903,38 51.007,38.9 51.007,40 C51.007,41.1 51.903,42 53.007,42 L53.007,42 Z M87.007,46 L83.007,46 C81.903,46 81.007,46.89 81.007,48 C81.007,49.1 81.903,50 83.007,50 L87.007,50 C88.111,50 89.007,49.1 89.007,48 C89.007,46.89 88.111,46 87.007,46 L87.007,46 Z M53.007,50 L75.007,50 C76.111,50 77.007,49.1 77.007,48 C77.007,46.89 76.111,46 75.007,46 L53.007,46 C51.903,46 51.007,46.89 51.007,48 C51.007,49.1 51.903,50 53.007,50 L53.007,50 Z" id="TXT" fill="#BDE5D6"></path>
            <path d="M56.007,30 L53.007,30 C51.903,30 51.007,30.89 51.007,32 C51.007,33.1 51.903,34 53.007,34 L56.007,34 C57.111,34 58.007,33.1 58.007,32 C58.007,30.89 57.111,30 56.007,30 L56.007,30 Z M77.007,30 L64.007,30 C62.903,30 62.007,30.89 62.007,32 C62.007,33.1 62.903,34 64.007,34 L77.007,34 C78.111,34 79.007,33.1 79.007,32 C79.007,30.89 78.111,30 77.007,30 L77.007,30 Z" id="H" fill="#23AA7C"></path>
            <path d="M16.007,119 L12.007,119 C10.903,119 10.007,119.89 10.007,121 C10.007,122.1 10.903,123 12.007,123 L16.007,123 C17.111,123 18.007,122.1 18.007,121 C18.007,119.89 17.111,119 16.007,119 L16.007,119 Z M45.007,119 L24.007,119 C22.903,119 22.007,119.89 22.007,121 C22.007,122.1 22.903,123 24.007,123 L45.007,123 C46.111,123 47.007,122.1 47.007,121 C47.007,119.89 46.111,119 45.007,119 L45.007,119 Z M12.007,107 L45.007,107 C46.111,107 47.007,106.1 47.007,105 C47.007,103.89 46.111,103 45.007,103 L12.007,103 C10.903,103 10.007,103.89 10.007,105 C10.007,106.1 10.903,107 12.007,107 L12.007,107 Z M45.007,111 L41.007,111 C39.903,111 39.007,111.9 39.007,113 C39.007,114.1 39.903,115 41.007,115 L45.007,115 C46.111,115 47.007,114.1 47.007,113 C47.007,111.9 46.111,111 45.007,111 L45.007,111 Z M12.007,115 L33.007,115 C34.111,115 35.007,114.1 35.007,113 C35.007,111.9 34.111,111 33.007,111 L12.007,111 C10.903,111 10.007,111.9 10.007,113 C10.007,114.1 10.903,115 12.007,115 L12.007,115 Z" id="TXT" fill="#BDE5D6"></path>
            <path d="M36.007,95 L33.007,95 C31.903,95 31.007,95.89 31.007,97 C31.007,98.1 31.903,99 33.007,99 L36.007,99 C37.111,99 38.007,98.1 38.007,97 C38.007,95.89 37.111,95 36.007,95 L36.007,95 Z M25.007,95 L12.007,95 C10.903,95 10.007,95.89 10.007,97 C10.007,98.1 10.903,99 12.007,99 L25.007,99 C26.111,99 27.007,98.1 27.007,97 C27.007,95.89 26.111,95 25.007,95 L25.007,95 Z" id="H" fill="#23AA7C"></path>
            <path d="M12.007,79 L45.007,79 C46.111,79 47.007,78.1 47.007,77 C47.007,75.9 46.111,75 45.007,75 L12.007,75 C10.903,75 10.007,75.9 10.007,77 C10.007,78.1 10.903,79 12.007,79 L12.007,79 Z M45.007,83 L41.007,83 C39.903,83 39.007,83.89 39.007,85 C39.007,86.1 39.903,87 41.007,87 L45.007,87 C46.111,87 47.007,86.1 47.007,85 C47.007,83.89 46.111,83 45.007,83 L45.007,83 Z M33.007,83 L12.007,83 C10.903,83 10.007,83.89 10.007,85 C10.007,86.1 10.903,87 12.007,87 L33.007,87 C34.111,87 35.007,86.1 35.007,85 C35.007,83.89 34.111,83 33.007,83 L33.007,83 Z" id="TXT" fill="#BDE5D6"></path>
            <path d="M35.007,67 L12.007,67 C10.903,67 10.007,67.89 10.007,69 C10.007,70.1 10.903,71 12.007,71 L35.007,71 C36.111,71 37.007,70.1 37.007,69 C37.007,67.89 36.111,67 35.007,67" id="H" fill="#23AA7C"></path>
            <path d="M43.007,30 L14.007,30 C11.798,30 10.007,31.79 10.007,34 L10.007,57 C10.007,59.21 11.798,61 14.007,61 L43.007,61 C45.216,61 47.007,59.21 47.007,57 L47.007,34 C47.007,31.79 45.216,30 43.007,30" id="Container" fill="#BDE5D6"></path>
            <path d="M33.539,42.82 C34.586,42.82 35.436,41.96 35.436,40.91 C35.436,39.85 34.586,39 33.539,39 C32.491,39 31.643,39.85 31.643,40.91 C31.643,41.96 32.491,42.82 33.539,42.82 L33.539,42.82 Z M37.964,50.77 C36.363,50.08 35.583,48.13 35.119,46.95 C34.422,45.18 32.973,45.54 31.959,46.63 C30.945,47.73 30.379,47.59 30.379,47.59 C26.1,47.45 25.703,38.16 22.793,42.18 C19.883,46.2 19.001,53 19.001,53 L38.912,53 C38.912,53 39.004,51.22 37.964,50.77 L37.964,50.77 Z" id="Image" fill="#FFFFFF"></path>
            <path d="M95.007,151 L128.007,151 C129.111,151 130.007,150.1 130.007,149 C130.007,147.9 129.111,147 128.007,147 L95.007,147 C93.903,147 93.007,147.9 93.007,149 C93.007,150.1 93.903,151 95.007,151 L95.007,151 Z M128.007,155 L124.007,155 C122.903,155 122.007,155.89 122.007,157 C122.007,158.1 122.903,159 124.007,159 L128.007,159 C129.111,159 130.007,158.1 130.007,157 C130.007,155.89 129.111,155 128.007,155 L128.007,155 Z M116.007,155 L95.007,155 C93.903,155 93.007,155.89 93.007,157 C93.007,158.1 93.903,159 95.007,159 L116.007,159 C117.111,159 118.007,158.1 118.007,157 C118.007,155.89 117.111,155 116.007,155 L116.007,155 Z" id="TXT" fill="#BDE5D6"></path>
            <path d="M118.007,139 L95.007,139 C93.903,139 93.007,139.89 93.007,141 C93.007,142.1 93.903,143 95.007,143 L118.007,143 C119.111,143 120.007,142.1 120.007,141 C120.007,139.89 119.111,139 118.007,139" id="H" fill="#23AA7C"></path>
            <path d="M126.007,102 L97.007,102 C94.798,102 93.007,103.79 93.007,106 L93.007,129 C93.007,131.21 94.798,133 97.007,133 L126.007,133 C128.216,133 130.007,131.21 130.007,129 L130.007,106 C130.007,103.79 128.216,102 126.007,102" id="Container" fill="#BDE5D6"></path>
            <path d="M116.54,114.82 C117.587,114.82 118.436,113.96 118.436,112.91 C118.436,111.85 117.587,111 116.54,111 C115.492,111 114.644,111.85 114.644,112.91 C114.644,113.96 115.492,114.82 116.54,114.82 L116.54,114.82 Z M120.964,122.77 C119.364,122.08 118.584,120.13 118.12,118.95 C117.422,117.18 115.974,117.54 114.959,118.63 C113.945,119.72 113.379,119.59 113.379,119.59 C109.1,119.45 108.704,110.16 105.794,114.18 C102.884,118.2 102.001,125 102.001,125 L121.912,125 C121.912,125 122.005,123.22 120.964,122.77 L120.964,122.77 Z" id="Image" fill="#FFFFFF"></path>
            <path d="M43.007,129 L14.007,129 C11.798,129 10.007,130.79 10.007,133 L10.007,156 C10.007,158.21 11.798,160 14.007,160 L43.007,160 C45.216,160 47.007,158.21 47.007,156 L47.007,133 C47.007,130.79 45.216,129 43.007,129" id="Container" fill="#BDE5D6"></path>
            <path d="M33.539,141.82 C34.586,141.82 35.436,140.96 35.436,139.91 C35.436,138.85 34.586,138 33.539,138 C32.491,138 31.643,138.85 31.643,139.91 C31.643,140.96 32.491,141.82 33.539,141.82 L33.539,141.82 Z M37.964,149.77 C36.363,149.08 35.583,147.13 35.119,145.95 C34.422,144.18 32.973,144.54 31.959,145.63 C30.945,146.72 30.379,146.59 30.379,146.59 C26.1,146.46 25.703,137.16 22.793,141.18 C19.883,145.2 19.001,152 19.001,152 L38.912,152 C38.912,152 39.004,150.22 37.964,149.77 L37.964,149.77 Z" id="Image" fill="#FFFFFF"></path>
        </g>
    </g>
</svg>