<?xml version="1.0" encoding="UTF-8" standalone="no"?>
<svg width="141px" height="170px" viewBox="0 0 141 170" version="1.1" xmlns="http://www.w3.org/2000/svg" xmlns:xlink="http://www.w3.org/1999/xlink">
    <!-- Generator: Sketch 3.8.1 (29687) - http://www.bohemiancoding.com/sketch -->
    <title>Group 15</title>
    <desc>Created with Sketch.</desc>
    <defs></defs>
    <g id="Page-1" stroke="none" stroke-width="1" fill="none" fill-rule="evenodd">
        <g id="Group-15">
            <path d="M130.031,19.9601915 L10,19.9601915 C4.477,19.9601915 0,24.4401915 0,29.9601915 L0,159.960191 C0,165.480191 4.477,169.960191 10,169.960191 L130.031,169.960191 C135.553,169.960191 140.031,165.480191 140.031,159.960191 L140.031,29.9601915 C140.031,24.4401915 135.553,19.9601915 130.031,19.9601915" id="Body" fill="#FFFFFF"></path>
            <path d="M134.001,160 C134.001,162.21 132.21,164 130.001,164 L10,164 C7.791,164 6,162.21 6,160 L6,30 C6,27.79 7.791,26 10,26 L130.001,26 C132.21,26 134.001,27.79 134.001,30 L134.001,160 L134.001,160 Z M130.001,0 L10,0 C4.477,0 0,4.48 0,10 L0,160 C0,165.52 4.477,170 10,170 L130.001,170 C135.524,170 140.001,165.52 140.001,160 L140.001,10 C140.001,4.48 135.524,0 130.001,0 L130.001,0 Z" id="Frame" fill="#23AA7C"></path>
            <path d="M127.022,9.96019146 C125.365,9.96019146 124.022,11.3001915 124.022,12.9601915 C124.022,14.6201915 125.365,15.9601915 127.022,15.9601915 C128.679,15.9601915 130.022,14.6201915 130.022,12.9601915 C130.022,11.3001915 128.679,9.96019146 127.022,9.96019146 L127.022,9.96019146 Z M116.022,9.96019146 C114.365,9.96019146 113.022,11.3001915 113.022,12.9601915 C113.022,14.6201915 114.365,15.9601915 116.022,15.9601915 C117.678,15.9601915 119.022,14.6201915 119.022,12.9601915 C119.022,11.3001915 117.678,9.96019146 116.022,9.96019146 L116.022,9.96019146 Z M105.022,9.96019146 C103.365,9.96019146 102.022,11.3001915 102.022,12.9601915 C102.022,14.6201915 103.365,15.9601915 105.022,15.9601915 C106.678,15.9601915 108.022,14.6201915 108.022,12.9601915 C108.022,11.3001915 106.678,9.96019146 105.022,9.96019146 L105.022,9.96019146 Z" id="Dots" fill="#FFFFFF"></path>
            <path d="M128.031,155.960191 L95.031,155.960191 C93.927,155.960191 93.031,156.850191 93.031,157.960191 C93.031,159.060191 93.927,159.960191 95.031,159.960191 L128.031,159.960191 C129.135,159.960191 130.031,159.060191 130.031,157.960191 C130.031,156.850191 129.135,155.960191 128.031,155.960191 L128.031,155.960191 Z M95.031,143.960191 L128.031,143.960191 C129.135,143.960191 130.031,143.060191 130.031,141.960191 C130.031,140.860191 129.135,139.960191 128.031,139.960191 L95.031,139.960191 C93.927,139.960191 93.031,140.860191 93.031,141.960191 C93.031,143.060191 93.927,143.960191 95.031,143.960191 L95.031,143.960191 Z M95.031,151.960191 L99.031,151.960191 C100.135,151.960191 101.031,151.060191 101.031,149.960191 C101.031,148.850191 100.135,147.960191 99.031,147.960191 L95.031,147.960191 C93.927,147.960191 93.031,148.850191 93.031,149.960191 C93.031,151.060191 93.927,151.960191 95.031,151.960191 L95.031,151.960191 Z M128.031,147.960191 L107.031,147.960191 C105.927,147.960191 105.031,148.850191 105.031,149.960191 C105.031,151.060191 105.927,151.960191 107.031,151.960191 L128.031,151.960191 C129.135,151.960191 130.031,151.060191 130.031,149.960191 C130.031,148.850191 129.135,147.960191 128.031,147.960191 L128.031,147.960191 Z" id="TXT" fill="#BDE5D6"></path>
            <path d="M126.031,96.9601915 L97.031,96.9601915 C94.822,96.9601915 93.031,98.7501915 93.031,100.960191 L93.031,131.960191 C93.031,134.170191 94.822,135.960191 97.031,135.960191 L126.031,135.960191 C128.24,135.960191 130.031,134.170191 130.031,131.960191 L130.031,100.960191 C130.031,98.7501915 128.24,96.9601915 126.031,96.9601915" id="Container" fill="#BDE5D6"></path>
            <path d="M116.56,113.780191 C117.608,113.780191 118.457,112.920191 118.457,111.870191 C118.457,110.810191 117.608,109.960191 116.56,109.960191 C115.513,109.960191 114.664,110.810191 114.664,111.870191 C114.664,112.920191 115.513,113.780191 116.56,113.780191 L116.56,113.780191 Z M120.985,121.730191 C119.385,121.040191 118.604,119.090191 118.14,117.910191 C117.443,116.140191 115.994,116.500191 114.98,117.590191 C113.967,118.690191 113.4,118.550191 113.4,118.550191 C109.121,118.410191 108.724,109.120191 105.814,113.140191 C102.904,117.160191 102.022,123.960191 102.022,123.960191 L121.933,123.960191 C121.933,123.960191 122.026,122.180191 120.985,121.730191 L120.985,121.730191 Z" id="Image" fill="#FFFFFF"></path>
            <path d="M87.031,155.960191 L63,155.960191 C61.895,155.960191 61,156.850191 61,157.960191 C61,159.060191 61.895,159.960191 63,159.960191 L87.031,159.960191 C88.135,159.960191 89.031,159.060191 89.031,157.960191 C89.031,156.850191 88.135,155.960191 87.031,155.960191 L87.031,155.960191 Z M55,155.960191 L53,155.960191 C51.895,155.960191 51,156.850191 51,157.960191 C51,159.060191 51.895,159.960191 53,159.960191 L55,159.960191 C56.104,159.960191 57,159.060191 57,157.960191 C57,156.850191 56.104,155.960191 55,155.960191 L55,155.960191 Z M53,143.960191 L87.031,143.960191 C88.135,143.960191 89.031,143.060191 89.031,141.960191 C89.031,140.860191 88.135,139.960191 87.031,139.960191 L53,139.960191 C51.895,139.960191 51,140.860191 51,141.960191 C51,143.060191 51.895,143.960191 53,143.960191 L53,143.960191 Z M87.031,147.960191 L73.031,147.960191 C71.927,147.960191 71.031,148.850191 71.031,149.960191 C71.031,151.060191 71.927,151.960191 73.031,151.960191 L87.031,151.960191 C88.135,151.960191 89.031,151.060191 89.031,149.960191 C89.031,148.850191 88.135,147.960191 87.031,147.960191 L87.031,147.960191 Z M53,151.960191 L65.031,151.960191 C66.135,151.960191 67.031,151.060191 67.031,149.960191 C67.031,148.850191 66.135,147.960191 65.031,147.960191 L53,147.960191 C51.895,147.960191 51,148.850191 51,149.960191 C51,151.060191 51.895,151.960191 53,151.960191 L53,151.960191 Z" id="TXT" fill="#BDE5D6"></path>
            <path d="M85.031,96.9601915 L55.031,96.9601915 C52.822,96.9601915 51.031,98.7501915 51.031,100.960191 L51.031,131.960191 C51.031,134.170191 52.822,135.960191 55.031,135.960191 L85.031,135.960191 C87.24,135.960191 89.031,134.170191 89.031,131.960191 L89.031,100.960191 C89.031,98.7501915 87.24,96.9601915 85.031,96.9601915" id="Container" fill="#BDE5D6"></path>
            <path d="M74.56,113.780191 C75.607,113.780191 76.456,112.920191 76.456,111.870191 C76.456,110.810191 75.607,109.960191 74.56,109.960191 C73.512,109.960191 72.664,110.810191 72.664,111.870191 C72.664,112.920191 73.512,113.780191 74.56,113.780191 L74.56,113.780191 Z M78.985,121.730191 C77.385,121.040191 76.604,119.090191 76.14,117.910191 C75.442,116.140191 73.994,116.500191 72.98,117.590191 C71.966,118.690191 71.399,118.550191 71.399,118.550191 C67.12,118.410191 66.724,109.120191 63.814,113.140191 C60.904,117.160191 60.021,123.960191 60.021,123.960191 L79.933,123.960191 C79.933,123.960191 80.025,122.180191 78.985,121.730191 L78.985,121.730191 Z" id="Image" fill="#FFFFFF"></path>
            <path d="M43,155.960191 L12,155.960191 C10.895,155.960191 10,156.850191 10,157.960191 C10,159.060191 10.895,159.960191 12,159.960191 L43,159.960191 C44.104,159.960191 45,159.060191 45,157.960191 C45,156.850191 44.104,155.960191 43,155.960191 L43,155.960191 Z M12,143.960191 L45,143.960191 C46.104,143.960191 47,143.060191 47,141.960191 C47,140.860191 46.104,139.960191 45,139.960191 L12,139.960191 C10.895,139.960191 10,140.860191 10,141.960191 C10,143.060191 10.895,143.960191 12,143.960191 L12,143.960191 Z M45,147.960191 L41,147.960191 C39.895,147.960191 39,148.850191 39,149.960191 C39,151.060191 39.895,151.960191 41,151.960191 L45,151.960191 C46.104,151.960191 47,151.060191 47,149.960191 C47,148.850191 46.104,147.960191 45,147.960191 L45,147.960191 Z M12,151.960191 L33,151.960191 C34.104,151.960191 35,151.060191 35,149.960191 C35,148.850191 34.104,147.960191 33,147.960191 L12,147.960191 C10.895,147.960191 10,148.850191 10,149.960191 C10,151.060191 10.895,151.960191 12,151.960191 L12,151.960191 Z" id="TXT" fill="#BDE5D6"></path>
            <path d="M43,96.9601915 L14,96.9601915 C11.791,96.9601915 10,98.7501915 10,100.960191 L10,131.960191 C10,134.170191 11.791,135.960191 14,135.960191 L43,135.960191 C45.209,135.960191 47,134.170191 47,131.960191 L47,100.960191 C47,98.7501915 45.209,96.9601915 43,96.9601915" id="Container" fill="#BDE5D6"></path>
            <path d="M33.559,113.780191 C34.607,113.780191 35.456,112.920191 35.456,111.870191 C35.456,110.810191 34.607,109.960191 33.559,109.960191 C32.512,109.960191 31.663,110.810191 31.663,111.870191 C31.663,112.920191 32.512,113.780191 33.559,113.780191 L33.559,113.780191 Z M37.984,121.730191 C36.384,121.040191 35.603,119.090191 35.14,117.910191 C34.442,116.140191 32.993,116.500191 31.979,117.590191 C30.966,118.690191 30.399,118.550191 30.399,118.550191 C26.12,118.410191 25.724,109.120191 22.814,113.140191 C19.904,117.160191 19.021,123.960191 19.021,123.960191 L38.932,123.960191 C38.932,123.960191 39.025,122.180191 37.984,121.730191 L37.984,121.730191 Z" id="Image" fill="#FFFFFF"></path>
            <path d="M126.031,29.9601915 L14,29.9601915 C11.791,29.9601915 10,31.7501915 10,33.9601915 L10,88.9601915 C10,91.1701915 11.791,92.9601915 14,92.9601915 L126.031,92.9601915 C128.24,92.9601915 130.031,91.1701915 130.031,88.9601915 L130.031,33.9601915 C130.031,31.7501915 128.24,29.9601915 126.031,29.9601915" id="Slice" fill="#55BD99"></path>
            <path d="M76.031,66.9601915 L64,66.9601915 C62.895,66.9601915 62,67.8601915 62,68.9601915 L62,70.9601915 C62,72.0601915 62.895,72.9601915 64,72.9601915 L76.031,72.9601915 C77.135,72.9601915 78.031,72.0601915 78.031,70.9601915 L78.031,68.9601915 C78.031,67.8601915 77.135,66.9601915 76.031,66.9601915" id="BTN" fill="#23AA7C"></path>
            <path d="M98.031,58.9601915 L42,58.9601915 C40.895,58.9601915 40,59.8501915 40,60.9601915 C40,62.0601915 40.895,62.9601915 42,62.9601915 L98.031,62.9601915 C99.135,62.9601915 100.031,62.0601915 100.031,60.9601915 C100.031,59.8501915 99.135,58.9601915 98.031,58.9601915 L98.031,58.9601915 Z M52,54.9601915 L88.031,54.9601915 C89.135,54.9601915 90.031,54.0601915 90.031,52.9601915 C90.031,51.8501915 89.135,50.9601915 88.031,50.9601915 L52,50.9601915 C50.895,50.9601915 50,51.8501915 50,52.9601915 C50,54.0601915 50.895,54.9601915 52,54.9601915 L52,54.9601915 Z" id="TXT" fill="#FFFFFF"></path>
        </g>
    </g>
</svg>