<?xml version="1.0" encoding="UTF-8" standalone="no"?>
<svg width="140px" height="170px" viewBox="0 0 140 170" version="1.1" xmlns="http://www.w3.org/2000/svg" xmlns:xlink="http://www.w3.org/1999/xlink">
    <!-- Generator: Sketch 3.8.1 (29687) - http://www.bohemiancoding.com/sketch -->
    <title>Group 16</title>
    <desc>Created with Sketch.</desc>
    <defs></defs>
    <g id="Page-1" stroke="none" stroke-width="1" fill="none" fill-rule="evenodd">
        <g id="Group-16">
            <path d="M130,20 L10,20 C4.48,20 0,24.48 0,30 L0,160 C0,165.52 4.48,170 10,170 L130,170 C135.52,170 140,165.52 140,160 L140,30 C140,24.48 135.52,20 130,20" id="Body" fill="#FFFFFF"></path>
            <path d="M134,160 C134,162.21 132.21,164 130,164 L10.01,164 C7.8,164 6.01,162.21 6.01,160 L6.01,30 C6.01,27.79 7.8,26 10.01,26 L130,26 C132.21,26 134,27.79 134,30 L134,160 L134,160 Z M130,0 L10.01,0 C4.49,0 0.01,4.48 0.01,10 L0.01,160 C0.01,165.52 4.49,170 10.01,170 L130,170 C135.52,170 140,165.52 140,160 L140,10 C140,4.48 135.52,0 130,0 L130,0 Z" id="Frame" fill="#23AA7C"></path>
            <path d="M116.1,10 C114.44,10 113.1,11.34 113.1,13 C113.1,14.66 114.44,16 116.1,16 C117.75,16 119.09,14.66 119.09,13 C119.09,11.34 117.75,10 116.1,10 L116.1,10 Z M127.09,10 C125.44,10 124.09,11.34 124.09,13 C124.09,14.66 125.44,16 127.09,16 C128.75,16 130.09,14.66 130.09,13 C130.09,11.34 128.75,10 127.09,10 L127.09,10 Z M105.1,10 C103.44,10 102.1,11.34 102.1,13 C102.1,14.66 103.44,16 105.1,16 C106.75,16 108.1,14.66 108.1,13 C108.1,11.34 106.75,10 105.1,10 L105.1,10 Z" id="Dots" fill="#FFFFFF"></path>
            <path d="M86.09,152 L84.09,152 C82.99,152 82.09,152.89 82.09,154 C82.09,155.1 82.99,156 84.09,156 L86.09,156 C87.2,156 88.09,155.1 88.09,154 C88.09,152.89 87.2,152 86.09,152 L86.09,152 Z M76.09,152 L74.09,152 C72.99,152 72.09,152.89 72.09,154 C72.09,155.1 72.99,156 74.09,156 L76.09,156 C77.2,156 78.09,155.1 78.09,154 C78.09,152.89 77.2,152 76.09,152 L76.09,152 Z M66.09,152 L64.09,152 C62.99,152 62.09,152.89 62.09,154 C62.09,155.1 62.99,156 64.09,156 L66.09,156 C67.2,156 68.09,155.1 68.09,154 C68.09,152.89 67.2,152 66.09,152 L66.09,152 Z" id="Pages" fill="#BDE5D6"></path>
            <path d="M56.09,152 L54.09,152 C52.99,152 52.09,152.89 52.09,154 C52.09,155.1 52.99,156 54.09,156 L56.09,156 C57.2,156 58.09,155.1 58.09,154 C58.09,152.89 57.2,152 56.09,152" id="Page" fill="#23AA7C"></path>
            <path d="M118.09,140 L92.09,140 C90.99,140 90.09,140.89 90.09,142 C90.09,143.1 90.99,144 92.09,144 L118.09,144 C119.2,144 120.09,143.1 120.09,142 C120.09,140.89 119.2,140 118.09,140 L118.09,140 Z M84.09,140 L64.09,140 C62.99,140 62.09,140.89 62.09,142 C62.09,143.1 62.99,144 64.09,144 L84.09,144 C85.2,144 86.09,143.1 86.09,142 C86.09,140.89 85.2,140 84.09,140 L84.09,140 Z M56.09,140 L22.09,140 C20.99,140 20.09,140.89 20.09,142 C20.09,143.1 20.99,144 22.09,144 L56.09,144 C57.2,144 58.09,143.1 58.09,142 C58.09,140.89 57.2,140 56.09,140 Z M118.09,118 L72.09,118 C70.99,118 70.09,118.89 70.09,120 C70.09,121.1 70.99,122 72.09,122 L118.09,122 C119.2,122 120.09,121.1 120.09,120 C120.09,118.89 119.2,118 118.09,118 Z M64.09,118 L54.09,118 C52.99,118 52.09,118.89 52.09,120 C52.09,121.1 52.99,122 54.09,122 L64.09,122 C65.2,122 66.09,121.1 66.09,120 C66.09,118.89 65.2,118 64.09,118 Z M46.09,118 L22.09,118 C20.99,118 20.09,118.89 20.09,120 C20.09,121.1 20.99,122 22.09,122 L46.09,122 C47.2,122 48.09,121.1 48.09,120 C48.09,118.89 47.2,118 46.09,118 Z M112.09,114 L118.09,114 C119.2,114 120.09,113.1 120.09,112 C120.09,110.9 119.2,110 118.09,110 L112.09,110 C110.99,110 110.09,110.9 110.09,112 C110.09,113.1 110.99,114 112.09,114 Z M64.09,114 L104.09,114 C105.2,114 106.09,113.1 106.09,112 C106.09,110.9 105.2,110 104.09,110 L64.09,110 C62.99,110 62.09,110.9 62.09,112 C62.09,113.1 62.99,114 64.09,114 Z M22.09,114 L56.09,114 C57.2,114 58.09,113.1 58.09,112 C58.09,110.9 57.2,110 56.09,110 L22.09,110 C20.99,110 20.09,110.9 20.09,112 C20.09,113.1 20.99,114 22.09,114 Z M118.09,88 L112.09,88 C110.99,88 110.09,88.9 110.09,90 C110.09,91.1 110.99,92 112.09,92 L118.09,92 C119.2,92 120.09,91.1 120.09,90 C120.09,88.9 119.2,88 118.09,88 Z M104.09,88 L94.09,88 C92.99,88 92.09,88.9 92.09,90 C92.09,91.1 92.99,92 94.09,92 L104.09,92 C105.2,92 106.09,91.1 106.09,90 C106.09,88.9 105.2,88 104.09,88 Z M86.09,88 L22.09,88 C20.99,88 20.09,88.9 20.09,90 C20.09,91.1 20.99,92 22.09,92 L86.09,92 C87.2,92 88.09,91.1 88.09,90 C88.09,88.9 87.2,88 86.09,88 Z M82.09,84 L118.09,84 C119.2,84 120.09,83.1 120.09,82 C120.09,80.89 119.2,80 118.09,80 L82.09,80 C80.99,80 80.09,80.89 80.09,82 C80.09,83.1 80.99,84 82.09,84 Z M44.09,84 L74.09,84 C75.2,84 76.09,83.1 76.09,82 C76.09,80.89 75.2,80 74.09,80 L44.09,80 C42.99,80 42.09,80.89 42.09,82 C42.09,83.1 42.99,84 44.09,84 Z M22.09,84 L36.09,84 C37.2,84 38.09,83.1 38.09,82 C38.09,80.89 37.2,80 36.09,80 L22.09,80 C20.99,80 20.09,80.89 20.09,82 C20.09,83.1 20.99,84 22.09,84 Z" id="TXT" fill="#BDE5D6"></path>
            <path d="M26.09,130 L22.09,130 C20.99,130 20.09,130.89 20.09,132 C20.09,133.1 20.99,134 22.09,134 L26.09,134 C27.2,134 28.09,133.1 28.09,132 C28.09,130.89 27.2,130 26.09,130 Z M26.09,100 L22.09,100 C20.99,100 20.09,100.9 20.09,102 C20.09,103.1 20.99,104 22.09,104 L26.09,104 C27.2,104 28.09,103.1 28.09,102 C28.09,100.9 27.2,100 26.09,100 Z M26.09,70 L22.09,70 C20.99,70 20.09,70.89 20.09,72 C20.09,73.1 20.99,74 22.09,74 L26.09,74 C27.2,74 28.09,73.1 28.09,72 C28.09,70.89 27.2,70 26.09,70 Z" id="H" fill="#55BD99"></path>
            <path d="M96.09,58 L66.09,58 C64.99,58 64.09,58.89 64.09,60 C64.09,61.1 64.99,62 66.09,62 L96.09,62 C97.2,62 98.09,61.1 98.09,60 C98.09,58.89 97.2,58 96.09,58 L96.09,58 Z M58.09,58 L44.09,58 C42.99,58 42.09,58.89 42.09,60 C42.09,61.1 42.99,62 44.09,62 L58.09,62 C59.2,62 60.09,61.1 60.09,60 C60.09,58.89 59.2,58 58.09,58 L58.09,58 Z" id="TXT" fill="#BDE5D6"></path>
            <path d="M118,40 L98,40 C96.9,40 96,40.9 96,42 L96,50 C96,51.1 96.9,52 98,52 L118,52 C119.1,52 120,51.1 120,50 L120,42 C120,40.9 119.1,40 118,40" id="BTN" fill="#55BD99"></path>
            <path d="M90,40 L22,40 C20.9,40 20,40.9 20,42 L20,50 C20,51.1 20.9,52 22,52 L90,52 C91.1,52 92,51.1 92,50 L92,42 C92,40.9 91.1,40 90,40" id="Input" fill="#BDE5D6"></path>
            <path d="M66,44 L60,44 C58.9,44 58,44.89 58,46 C58,47.1 58.9,48 60,48 L66,48 C67.1,48 68,47.1 68,46 C68,44.89 67.1,44 66,44 L66,44 Z M52,44 L26,44 C24.9,44 24,44.89 24,46 C24,47.1 24.9,48 26,48 L52,48 C53.1,48 54,47.1 54,46 C54,44.89 53.1,44 52,44 L52,44 Z" id="TXT" fill="#FFFFFF"></path>
        </g>
    </g>
</svg>