<?xml version="1.0" encoding="UTF-8" standalone="no"?>
<svg width="140px" height="170px" viewBox="0 0 140 170" version="1.1" xmlns="http://www.w3.org/2000/svg" xmlns:xlink="http://www.w3.org/1999/xlink">
    <!-- Generator: Sketch 3.8.1 (29687) - http://www.bohemiancoding.com/sketch -->
    <title>Group 13 Copy 2</title>
    <desc>Created with Sketch.</desc>
    <defs></defs>
    <g id="Page-1" stroke="none" stroke-width="1" fill="none" fill-rule="evenodd">
        <g id="Group-13-Copy-2">
            <g id="Group-6-Copy">
                <path d="M129.983,20 L10.014,20 C4.491,20 0.014,24.48 0.014,30 L0.014,160 C0.014,165.52 4.491,170 10.014,170 L129.983,170 C135.506,170 139.983,165.52 139.983,160 L139.983,30 C139.983,24.48 135.506,20 129.983,20" id="Body" fill="#FFFFFF"></path>
                <path d="M134.002,160 C134.002,162.21 132.211,164 130.001,164 L10.001,164 C7.791,164 6,162.21 6,160 L6,30 C6,27.79 7.791,26 10.001,26 L130.001,26 C132.211,26 134.002,27.79 134.002,30 L134.002,160 L134.002,160 Z M130.002,0 L10.001,0 C4.478,0 0,4.48 0,10 L0,160 C0,165.52 4.478,170 10.001,170 L130.002,170 C135.524,170 140.002,165.52 140.002,160 L140.002,10 C140.002,4.48 135.524,0 130.002,0 L130.002,0 Z" id="Frame" fill="#23AA7C"></path>
                <path d="M127.001,10 C125.345,10 124.002,11.34 124.002,13 C124.002,14.66 125.345,16 127.001,16 C128.659,16 130.001,14.66 130.001,13 C130.001,11.34 128.659,10 127.001,10 L127.001,10 Z M105.001,10 C103.345,10 102.001,11.34 102.001,13 C102.001,14.66 103.345,16 105.001,16 C106.659,16 108.001,14.66 108.001,13 C108.001,11.34 106.659,10 105.001,10 L105.001,10 Z M116.001,10 C114.345,10 113.001,11.34 113.001,13 C113.001,14.66 114.345,16 116.001,16 C117.659,16 119.001,14.66 119.001,13 C119.001,11.34 117.659,10 116.001,10 L116.001,10 Z" id="Dots" fill="#FFFFFF"></path>
            </g>
            <text id="SQL" font-family="Helvetica-Bold, Helvetica" font-size="28" font-weight="bold" fill="#23AA7C">
                <tspan x="41" y="102">SQL</tspan>
            </text>
        </g>
    </g>
</svg>