<?xml version="1.0" encoding="UTF-8" standalone="no"?>
<svg width="140px" height="170px" viewBox="0 0 140 170" version="1.1" xmlns="http://www.w3.org/2000/svg" xmlns:xlink="http://www.w3.org/1999/xlink">
    <!-- Generator: Sketch 3.8.1 (29687) - http://www.bohemiancoding.com/sketch -->
    <title>Group 13 Copy</title>
    <desc>Created with Sketch.</desc>
    <defs></defs>
    <g id="Page-1" stroke="none" stroke-width="1" fill="none" fill-rule="evenodd">
        <g id="Group-13-Copy">
            <g id="Group-6-Copy">
                <path d="M129.061135,20 L9.94297872,20 C4.45914894,20 0.0139007092,24.48 0.0139007092,30 L0.0139007092,160 C0.0139007092,165.52 4.45914894,170 9.94297872,170 L129.061135,170 C134.544965,170 138.990213,165.52 138.990213,160 L138.990213,30 C138.990213,24.48 134.544965,20 129.061135,20" id="Body" fill="#23AA7C"></path>
                <path d="M133.051631,160 C133.051631,162.21 131.273333,164 129.079007,164 L9.93007092,164 C7.73574468,164 5.95744681,162.21 5.95744681,160 L5.95744681,30 C5.95744681,27.79 7.73574468,26 9.93007092,26 L129.079007,26 C131.273333,26 133.051631,27.79 133.051631,30 L133.051631,160 L133.051631,160 Z M129.08,0 L9.93007092,0 C4.44624113,0 0,4.48 0,10 L0,160 C0,165.52 4.44624113,170 9.93007092,170 L129.08,170 C134.562837,170 139.009078,165.52 139.009078,160 L139.009078,10 C139.009078,4.48 134.562837,0 129.08,0 L129.08,0 Z" id="Frame" fill="#23AA7C"></path>
                <path d="M126.100284,10 C124.456028,10 123.122553,11.34 123.122553,13 C123.122553,14.66 124.456028,16 126.100284,16 C127.746525,16 129.079007,14.66 129.079007,13 C129.079007,11.34 127.746525,10 126.100284,10 L126.100284,10 Z M104.256312,10 C102.612057,10 101.277589,11.34 101.277589,13 C101.277589,14.66 102.612057,16 104.256312,16 C105.902553,16 107.235035,14.66 107.235035,13 C107.235035,11.34 105.902553,10 104.256312,10 L104.256312,10 Z M115.178298,10 C113.534043,10 112.199574,11.34 112.199574,13 C112.199574,14.66 113.534043,16 115.178298,16 C116.824539,16 118.157021,14.66 118.157021,13 C118.157021,11.34 116.824539,10 115.178298,10 L115.178298,10 Z" id="Dots" fill="#FFFFFF"></path>
            </g>
            <text id="START" font-family="Helvetica-Bold, Helvetica" font-size="28" font-weight="bold" fill="#FFFFFF">
                <tspan x="23.8297872" y="102">START</tspan>
            </text>
        </g>
    </g>
</svg>