<?xml version="1.0" encoding="UTF-8" standalone="no"?>
<svg width="141px" height="171px" viewBox="0 0 141 171" version="1.1" xmlns="http://www.w3.org/2000/svg" xmlns:xlink="http://www.w3.org/1999/xlink">
    <!-- Generator: Sketch 3.8.1 (29687) - http://www.bohemiancoding.com/sketch -->
    <title>Group 5</title>
    <desc>Created with Sketch.</desc>
    <defs></defs>
    <g id="Page-1" stroke="none" stroke-width="1" fill="none" fill-rule="evenodd">
        <g id="Group-5">
            <g id="Group-3">
                <path d="M130.031,20.9601915 L10.031,20.9601915 C4.511,20.9601915 0.031,25.4401915 0.031,30.9601915 L0.031,160.960191 C0.031,166.480191 4.511,170.960191 10.031,170.960191 L130.031,170.960191 C135.551,170.960191 140.031,166.480191 140.031,160.960191 L140.031,30.9601915 C140.031,25.4401915 135.551,20.9601915 130.031,20.9601915" id="Body" fill="#FFFFFF"></path>
                <path d="M134.031,160.960191 C134.031,163.170191 132.241,164.960191 130.031,164.960191 L10.041,164.960191 C7.831,164.960191 6.041,163.170191 6.041,160.960191 L6.041,30.9601915 C6.041,28.7501915 7.831,26.9601915 10.041,26.9601915 L130.031,26.9601915 C132.241,26.9601915 134.031,28.7501915 134.031,30.9601915 L134.031,160.960191 L134.031,160.960191 Z M130.031,0.960191455 L10.041,0.960191455 C4.521,0.960191455 0.041,5.44019146 0.041,10.9601915 L0.041,160.960191 C0.041,166.480191 4.521,170.960191 10.041,170.960191 L130.031,170.960191 C135.551,170.960191 140.031,166.480191 140.031,160.960191 L140.031,10.9601915 C140.031,5.44019146 135.551,0.960191455 130.031,0.960191455 L130.031,0.960191455 Z" id="Frame" fill="#23AA7C"></path>
                <path d="M127.121,10.9601915 C125.471,10.9601915 124.121,12.3001915 124.121,13.9601915 C124.121,15.6201915 125.471,16.9601915 127.121,16.9601915 C128.781,16.9601915 130.121,15.6201915 130.121,13.9601915 C130.121,12.3001915 128.781,10.9601915 127.121,10.9601915 L127.121,10.9601915 Z M116.131,10.9601915 C114.471,10.9601915 113.131,12.3001915 113.131,13.9601915 C113.131,15.6201915 114.471,16.9601915 116.131,16.9601915 C117.781,16.9601915 119.121,15.6201915 119.121,13.9601915 C119.121,12.3001915 117.781,10.9601915 116.131,10.9601915 L116.131,10.9601915 Z M105.131,10.9601915 C103.471,10.9601915 102.131,12.3001915 102.131,13.9601915 C102.131,15.6201915 103.471,16.9601915 105.131,16.9601915 C106.781,16.9601915 108.131,15.6201915 108.131,13.9601915 C108.131,12.3001915 106.781,10.9601915 105.131,10.9601915 L105.131,10.9601915 Z" id="Dots" fill="#FFFFFF"></path>
                <path d="M96.121,124.960191 L66.121,124.960191 C65.021,124.960191 64.121,125.860191 64.121,126.960191 C64.121,128.060191 65.021,128.960191 66.121,128.960191 L96.121,128.960191 C97.231,128.960191 98.121,128.060191 98.121,126.960191 C98.121,125.860191 97.231,124.960191 96.121,124.960191 L96.121,124.960191 Z M58.121,124.960191 L44.121,124.960191 C43.021,124.960191 42.121,125.860191 42.121,126.960191 C42.121,128.060191 43.021,128.960191 44.121,128.960191 L58.121,128.960191 C59.231,128.960191 60.121,128.060191 60.121,126.960191 C60.121,125.860191 59.231,124.960191 58.121,124.960191 L58.121,124.960191 Z" id="TXT" fill="#55BD99"></path>
                <path d="M118.031,106.960191 L98.031,106.960191 C96.931,106.960191 96.031,107.850191 96.031,108.960191 L96.031,116.960191 C96.031,118.060191 96.931,118.960191 98.031,118.960191 L118.031,118.960191 C119.131,118.960191 120.031,118.060191 120.031,116.960191 L120.031,108.960191 C120.031,107.850191 119.131,106.960191 118.031,106.960191" id="BTN" fill="#23AA7C"></path>
                <path d="M90.031,106.960191 L22.031,106.960191 C20.931,106.960191 20.031,107.850191 20.031,108.960191 L20.031,116.960191 C20.031,118.060191 20.931,118.960191 22.031,118.960191 L90.031,118.960191 C91.131,118.960191 92.031,118.060191 92.031,116.960191 L92.031,108.960191 C92.031,107.850191 91.131,106.960191 90.031,106.960191" id="Input" fill="#BDE5D6"></path>
                <path d="M66.031,110.960191 L60.031,110.960191 C58.931,110.960191 58.031,111.860191 58.031,112.960191 C58.031,114.060191 58.931,114.960191 60.031,114.960191 L66.031,114.960191 C67.131,114.960191 68.031,114.060191 68.031,112.960191 C68.031,111.860191 67.131,110.960191 66.031,110.960191 L66.031,110.960191 Z M52.031,110.960191 L26.031,110.960191 C24.931,110.960191 24.031,111.860191 24.031,112.960191 C24.031,114.060191 24.931,114.960191 26.031,114.960191 L52.031,114.960191 C53.131,114.960191 54.031,114.060191 54.031,112.960191 C54.031,111.860191 53.131,110.960191 52.031,110.960191 L52.031,110.960191 Z" id="TXT" fill="#FFFFFF"></path>
                <path d="M68.031,78.9601915 C64.711,78.9601915 62.021,76.2701915 62.021,72.9501915 C62.021,69.6401915 64.711,66.9501915 68.031,66.9501915 C71.341,66.9501915 74.031,69.6401915 74.031,72.9501915 C74.031,76.2701915 71.341,78.9601915 68.031,78.9601915 L68.031,78.9601915 Z M81.361,83.0901915 L76.501,78.2301915 C77.461,76.7001915 78.021,74.8901915 78.021,72.9501915 C78.021,67.4301915 73.551,62.9601915 68.031,62.9601915 C62.501,62.9601915 58.031,67.4301915 58.031,72.9501915 C58.031,78.4701915 62.501,82.9501915 68.031,82.9501915 C69.971,82.9501915 71.771,82.3901915 73.301,81.4301915 L78.161,86.2901915 C79.051,87.1701915 80.481,87.1701915 81.361,86.2901915 C82.251,85.4101915 82.251,83.9701915 81.361,83.0901915 L81.361,83.0901915 Z" id="Magnifier" fill="#55BD99"></path>
            </g>
        </g>
    </g>
</svg>