<?xml version="1.0" encoding="UTF-8" standalone="no"?>
<svg width="140px" height="170px" viewBox="0 0 140 170" version="1.1" xmlns="http://www.w3.org/2000/svg" xmlns:xlink="http://www.w3.org/1999/xlink">
    <!-- Generator: Sketch 3.8.1 (29687) - http://www.bohemiancoding.com/sketch -->
    <title>Group 7</title>
    <desc>Created with Sketch.</desc>
    <defs></defs>
    <g id="Page-1" stroke="none" stroke-width="1" fill="none" fill-rule="evenodd">
        <g id="Group-7">
            <path d="M130,20 L10,20 C4.48,20 0,24.48 0,30 L0,160 C0,165.52 4.48,170 10,170 L130,170 C135.52,170 140,165.52 140,160 L140,30 C140,24.48 135.52,20 130,20" id="Body" fill="#FFFFFF"></path>
            <path d="M134,160 C134,162.21 132.21,164 130,164 L10,164 C7.79,164 6,162.21 6,160 L6,30 C6,27.79 7.79,26 10,26 L130,26 C132.21,26 134,27.79 134,30 L134,160 L134,160 Z M130,0 L10,0 C4.47,0 0,4.48 0,10 L0,160 C0,165.52 4.47,170 10,170 L130,170 C135.52,170 140,165.52 140,160 L140,10 C140,4.48 135.52,0 130,0 L130,0 Z" id="Frame" fill="#23AA7C"></path>
            <path d="M116,10 C114.34,10 113,11.34 113,13 C113,14.66 114.34,16 116,16 C117.65,16 119,14.66 119,13 C119,11.34 117.65,10 116,10 L116,10 Z M127,10 C125.34,10 124,11.34 124,13 C124,14.66 125.34,16 127,16 C128.65,16 130,14.66 130,13 C130,11.34 128.65,10 127,10 L127,10 Z M105,10 C103.34,10 102,11.34 102,13 C102,14.66 103.34,16 105,16 C106.65,16 108,14.66 108,13 C108,11.34 106.65,10 105,10 L105,10 Z" id="Dots" fill="#FFFFFF"></path>
            <path d="M85,131 L54.97,131 C52.76,131 50.97,132.79 50.97,135 L50.97,155 C50.97,157.21 52.76,159 54.97,159 L85,159 C87.21,159 89,157.21 89,155 L89,135 C89,132.79 87.21,131 85,131" id="Container" fill="#BDE5D6"></path>
            <path d="M74.53,143.82 C75.58,143.82 76.43,142.96 76.43,141.91 C76.43,140.85 75.58,140 74.53,140 C73.49,140 72.64,140.85 72.64,141.91 C72.64,142.96 73.49,143.82 74.53,143.82 L74.53,143.82 Z M78.96,151.77 C77.36,151.08 76.58,149.13 76.11,147.95 C75.42,146.18 73.97,146.54 72.95,147.63 C71.94,148.72 71.37,148.59 71.37,148.59 C67.09,148.46 66.7,139.16 63.79,143.18 C60.88,147.2 60,154 60,154 L79.91,154 C79.91,154 80,152.22 78.96,151.77 L78.96,151.77 Z" id="Image" fill="#FFFFFF"></path>
            <path d="M128,155 L95,155 C93.9,155 93,155.89 93,157 C93,158.1 93.9,159 95,159 L128,159 C129.1,159 130,158.1 130,157 C130,155.89 129.1,155 128,155 L128,155 Z M128,147 L114,147 C112.9,147 112,147.9 112,149 C112,150.1 112.9,151 114,151 L128,151 C129.1,151 130,150.1 130,149 C130,147.9 129.1,147 128,147 L128,147 Z M95,151 L106,151 C107.1,151 108,150.1 108,149 C108,147.9 107.1,147 106,147 L95,147 C93.9,147 93,147.9 93,149 C93,150.1 93.9,151 95,151 L95,151 Z M128,139 L95,139 C93.9,139 93,139.89 93,141 C93,142.1 93.9,143 95,143 L128,143 C129.1,143 130,142.1 130,141 C130,139.89 129.1,139 128,139 L128,139 Z M128,131 L124,131 C122.9,131 122,131.89 122,133 C122,134.1 122.9,135 124,135 L128,135 C129.1,135 130,134.1 130,133 C130,131.89 129.1,131 128,131 L128,131 Z M95,135 L116,135 C117.1,135 118,134.1 118,133 C118,131.89 117.1,131 116,131 L95,131 C93.9,131 93,131.89 93,133 C93,134.1 93.9,135 95,135 L95,135 Z M128,123 L95,123 C93.9,123 93,123.9 93,125 C93,126.1 93.9,127 95,127 L128,127 C129.1,127 130,126.1 130,125 C130,123.9 129.1,123 128,123 L128,123 Z M95,119 L109,119 C110.1,119 111,118.1 111,117 C111,115.89 110.1,115 109,115 L95,115 C93.9,115 93,115.89 93,117 C93,118.1 93.9,119 95,119 L95,119 Z M128,115 L117,115 C115.9,115 115,115.89 115,117 C115,118.1 115.9,119 117,119 L128,119 C129.1,119 130,118.1 130,117 C130,115.89 129.1,115 128,115 L128,115 Z M128,107 L95,107 C93.9,107 93,107.89 93,109 C93,110.1 93.9,111 95,111 L128,111 C129.1,111 130,110.1 130,109 C130,107.89 129.1,107 128,107 L128,107 Z M95,103 L99,103 C100.1,103 101,102.1 101,101 C101,99.9 100.1,99 99,99 L95,99 C93.9,99 93,99.9 93,101 C93,102.1 93.9,103 95,103 L95,103 Z M107,103 L128,103 C129.1,103 130,102.1 130,101 C130,99.9 129.1,99 128,99 L107,99 C105.9,99 105,99.9 105,101 C105,102.1 105.9,103 107,103 L107,103 Z" id="TXT" fill="#BDE5D6"></path>
            <path d="M108,91 L95,91 C93.9,91 93,91.89 93,93 C93,94.1 93.9,95 95,95 L108,95 C109.1,95 110,94.1 110,93 C110,91.89 109.1,91 108,91 L108,91 Z M119,91 L116,91 C114.9,91 114,91.89 114,93 C114,94.1 114.9,95 116,95 L119,95 C120.1,95 121,94.1 121,93 C121,91.89 120.1,91 119,91 L119,91 Z" id="H" fill="#55BD99"></path>
            <path d="M76.97,123 L52.97,123 C51.86,123 50.97,123.9 50.97,125 C50.97,126.1 51.86,127 52.97,127 L76.97,127 C78.07,127 78.97,126.1 78.97,125 C78.97,123.9 78.07,123 76.97,123 L76.97,123 Z M52.97,119 L56.97,119 C58.07,119 58.97,118.1 58.97,117 C58.97,115.89 58.07,115 56.97,115 L52.97,115 C51.86,115 50.97,115.89 50.97,117 C50.97,118.1 51.86,119 52.97,119 L52.97,119 Z M87,115 L64.97,115 C63.86,115 62.97,115.89 62.97,117 C62.97,118.1 63.86,119 64.97,119 L87,119 C88.1,119 89,118.1 89,117 C89,115.89 88.1,115 87,115 L87,115 Z M52.97,103 L87,103 C88.1,103 89,102.1 89,101 C89,99.9 88.1,99 87,99 L52.97,99 C51.86,99 50.97,99.9 50.97,101 C50.97,102.1 51.86,103 52.97,103 L52.97,103 Z M87,107 L82.97,107 C81.86,107 80.97,107.89 80.97,109 C80.97,110.1 81.86,111 82.97,111 L87,111 C88.1,111 89,110.1 89,109 C89,107.89 88.1,107 87,107 L87,107 Z M52.97,111 L74.97,111 C76.07,111 76.97,110.1 76.97,109 C76.97,107.89 76.07,107 74.97,107 L52.97,107 C51.86,107 50.97,107.89 50.97,109 C50.97,110.1 51.86,111 52.97,111 L52.97,111 Z" id="TXT" fill="#BDE5D6"></path>
            <path d="M55.97,91 L52.97,91 C51.86,91 50.97,91.89 50.97,93 C50.97,94.1 51.86,95 52.97,95 L55.97,95 C57.07,95 57.97,94.1 57.97,93 C57.97,91.89 57.07,91 55.97,91 L55.97,91 Z M76.97,91 L63.97,91 C62.86,91 61.97,91.89 61.97,93 C61.97,94.1 62.86,95 63.97,95 L76.97,95 C78.07,95 78.97,94.1 78.97,93 C78.97,91.89 78.07,91 76.97,91 L76.97,91 Z" id="H" fill="#55BD99"></path>
            <path d="M36,155 L33,155 C31.9,155 31,155.89 31,157 C31,158.1 31.9,159 33,159 L36,159 C37.1,159 38,158.1 38,157 C38,155.89 37.1,155 36,155 L36,155 Z M25,155 L12,155 C10.9,155 10,155.89 10,157 C10,158.1 10.9,159 12,159 L25,159 C26.1,159 27,158.1 27,157 C27,155.89 26.1,155 25,155 L25,155 Z" id="H" fill="#55BD99"></path>
            <path d="M12,140 L44.97,140 C46.07,140 46.97,139.1 46.97,138 C46.97,136.9 46.07,136 44.97,136 L12,136 C10.9,136 10,136.9 10,138 C10,139.1 10.9,140 12,140 L12,140 Z M44.97,144 L41,144 C39.9,144 39,144.89 39,146 C39,147.1 39.9,148 41,148 L44.97,148 C46.07,148 46.97,147.1 46.97,146 C46.97,144.89 46.07,144 44.97,144 L44.97,144 Z M33,144 L12,144 C10.9,144 10,144.89 10,146 C10,147.1 10.9,148 12,148 L33,148 C34.1,148 35,147.1 35,146 C35,144.89 34.1,144 33,144 L33,144 Z" id="TXT" fill="#BDE5D6"></path>
            <path d="M35,128 L12,128 C10.9,128 10,128.89 10,130 C10,131.1 10.9,132 12,132 L35,132 C36.1,132 37,131.1 37,130 C37,128.89 36.1,128 35,128" id="H" fill="#55BD99"></path>
            <path d="M42.97,91 L14,91 C11.79,91 10,92.79 10,95 L10,118 C10,120.21 11.79,122 14,122 L42.97,122 C45.18,122 46.97,120.21 46.97,118 L46.97,95 C46.97,92.79 45.18,91 42.97,91" id="Container" fill="#BDE5D6"></path>
            <path d="M33.53,103.82 C34.58,103.82 35.43,102.96 35.43,101.91 C35.43,100.85 34.58,100 33.53,100 C32.49,100 31.64,100.85 31.64,101.91 C31.64,102.96 32.49,103.82 33.53,103.82 L33.53,103.82 Z M37.96,111.77 C36.36,111.08 35.58,109.13 35.11,107.95 C34.42,106.18 32.97,106.54 31.95,107.63 C30.94,108.72 30.37,108.59 30.37,108.59 C26.09,108.45 25.7,99.16 22.79,103.18 C19.88,107.2 19,114 19,114 L38.91,114 C38.91,114 39,112.22 37.96,111.77 L37.96,111.77 Z" id="Image" fill="#FFFFFF"></path>
            <path d="M14,30 C11.79,30 10,31.79 10,34 L10,79 C10,81.21 11.79,83 14,83 L126,83 C128.21,83 130,81.21 130,79 L130,34 C130,31.79 128.21,30 126,30 L14,30 Z" id="Slice" fill="#55BD99"></path>
            <path d="M44.36,52 C46.04,52 47.4,50.65 47.4,49 C47.4,47.34 46.04,46 44.36,46 C42.67,46 41.31,47.34 41.31,49 C41.31,50.65 42.67,52 44.36,52 L44.36,52 Z M51.46,64.5 C48.89,63.42 47.64,60.35 46.89,58.5 C45.77,55.71 43.45,56.29 41.82,58 C40.19,59.71 39.28,59.5 39.28,59.5 C32.4,59.29 31.77,44.68 27.09,51 C22.41,57.32 21,68 21,68 L52.99,68 C52.99,68 53.14,65.2 51.46,64.5 L51.46,64.5 Z" id="Image" fill="#FFFFFF"></path>
            <path d="M79.97,63 L66.97,63 C65.86,63 64.97,63.9 64.97,65 C64.97,66.1 65.86,67 66.97,67 L79.97,67 C81.07,67 81.97,66.1 81.97,65 C81.97,63.9 81.07,63 79.97,63 L79.97,63 Z M95,63 L88,63 C86.9,63 86,63.9 86,65 C86,66.1 86.9,67 88,67 L95,67 C96.1,67 97,66.1 97,65 C97,63.9 96.1,63 95,63 L95,63 Z M105,55 L81.97,55 C80.86,55 79.97,55.89 79.97,57 C79.97,58.1 80.86,59 81.97,59 L105,59 C106.1,59 107,58.1 107,57 C107,55.89 106.1,55 105,55 L105,55 Z M66.97,59 L73.97,59 C75.07,59 75.97,58.1 75.97,57 C75.97,55.89 75.07,55 73.97,55 L66.97,55 C65.86,55 64.97,55.89 64.97,57 C64.97,58.1 65.86,59 66.97,59 L66.97,59 Z" id="TXT" fill="#23AA7C"></path>
            <path d="M116,47 L102,47 C100.9,47 100,47.89 100,49 C100,50.1 100.9,51 102,51 L116,51 C117.1,51 118,50.1 118,49 C118,47.89 117.1,47 116,47 L116,47 Z M94,47 L66.97,47 C65.86,47 64.97,47.89 64.97,49 C64.97,50.1 65.86,51 66.97,51 L94,51 C95.1,51 96,50.1 96,49 C96,47.89 95.1,47 94,47 L94,47 Z" id="H" fill="#FFFFFF"></path>
        </g>
    </g>
</svg>