<?xml version="1.0" encoding="UTF-8" standalone="no"?>
<svg width="141px" height="170px" viewBox="0 0 141 170" version="1.1" xmlns="http://www.w3.org/2000/svg" xmlns:xlink="http://www.w3.org/1999/xlink">
    <!-- Generator: Sketch 3.8.1 (29687) - http://www.bohemiancoding.com/sketch -->
    <title>Group 8</title>
    <desc>Created with Sketch.</desc>
    <defs></defs>
    <g id="Page-1" stroke="none" stroke-width="1" fill="none" fill-rule="evenodd">
        <g id="Group-8">
            <path d="M130.012,20 L10.012,20 C4.489,20 0.012,24.48 0.012,30 L0.012,160 C0.012,165.52 4.489,170 10.012,170 L130.012,170 C135.535,170 140.012,165.52 140.012,160 L140.012,30 C140.012,24.48 135.535,20 130.012,20" id="Body" fill="#FFFFFF"></path>
            <path d="M134.001,160 C134.001,162.21 132.211,164 130.001,164 L10,164 C7.791,164 6,162.21 6,160 L6,30 C6,27.79 7.791,26 10,26 L130.001,26 C132.211,26 134.001,27.79 134.001,30 L134.001,160 L134.001,160 Z M130.001,0 L10,0 C4.477,0 0,4.48 0,10 L0,160 C0,165.52 4.477,170 10,170 L130.001,170 C135.524,170 140.001,165.52 140.001,160 L140.001,10 C140.001,4.48 135.524,0 130.001,0 L130.001,0 Z" id="Frame" fill="#23AA7C"></path>
            <path d="M127.001,10 C125.345,10 124.001,11.34 124.001,13 C124.001,14.66 125.345,16 127.001,16 C128.658,16 130.001,14.66 130.001,13 C130.001,11.34 128.658,10 127.001,10 L127.001,10 Z M105.001,10 C103.345,10 102.001,11.34 102.001,13 C102.001,14.66 103.345,16 105.001,16 C106.658,16 108.001,14.66 108.001,13 C108.001,11.34 106.658,10 105.001,10 L105.001,10 Z M116.001,10 C114.345,10 113.001,11.34 113.001,13 C113.001,14.66 114.345,16 116.001,16 C117.658,16 119.001,14.66 119.001,13 C119.001,11.34 117.658,10 116.001,10 L116.001,10 Z" id="Dots" fill="#FFFFFF"></path>
            <path d="M126.012,128.97 L76.012,128.97 C73.803,128.97 72.012,130.76 72.012,132.97 L72.012,155.97 C72.012,158.18 73.803,159.97 76.012,159.97 L126.012,159.97 C128.221,159.97 130.012,158.18 130.012,155.97 L130.012,132.97 C130.012,130.76 128.221,128.97 126.012,128.97" id="Container" fill="#BDE5D6"></path>
            <path d="M105.539,141.82 C106.587,141.82 107.436,140.96 107.436,139.91 C107.436,138.85 106.587,138 105.539,138 C104.492,138 103.643,138.85 103.643,139.91 C103.643,140.96 104.492,141.82 105.539,141.82 L105.539,141.82 Z M109.964,149.77 C108.364,149.08 107.583,147.13 107.12,145.95 C106.422,144.18 104.973,144.54 103.959,145.63 C102.946,146.72 102.379,146.59 102.379,146.59 C98.1,146.46 97.704,137.16 94.794,141.18 C91.884,145.2 91.001,152 91.001,152 L110.912,152 C110.912,152 111.005,150.22 109.964,149.77 L109.964,149.77 Z" id="Image" fill="#FFFFFF"></path>
            <path d="M64.012,128.97 L14.012,128.97 C11.803,128.97 10.012,130.76 10.012,132.97 L10.012,155.97 C10.012,158.18 11.803,159.97 14.012,159.97 L64.012,159.97 C66.221,159.97 68.012,158.18 68.012,155.97 L68.012,132.97 C68.012,130.76 66.221,128.97 64.012,128.97" id="Container" fill="#BDE5D6"></path>
            <path d="M43.539,141.82 C44.586,141.82 45.435,140.96 45.435,139.91 C45.435,138.85 44.586,138 43.539,138 C42.491,138 41.642,138.85 41.642,139.91 C41.642,140.96 42.491,141.82 43.539,141.82 L43.539,141.82 Z M47.964,149.77 C46.363,149.08 45.583,147.13 45.119,145.95 C44.422,144.18 42.972,144.54 41.959,145.63 C40.945,146.72 40.379,146.59 40.379,146.59 C36.099,146.46 35.703,137.16 32.793,141.18 C29.883,145.2 29.001,152 29.001,152 L48.912,152 C48.912,152 49.004,150.22 47.964,149.77 L47.964,149.77 Z" id="Image" fill="#FFFFFF"></path>
            <path d="M86.012,119 L74.012,119 C72.908,119 72.012,119.89 72.012,121 L72.012,123 C72.012,124.1 72.908,125 74.012,125 L86.012,125 C87.116,125 88.012,124.1 88.012,123 L88.012,121 C88.012,119.89 87.116,119 86.012,119" id="BTN" fill="#23AA7C"></path>
            <path d="M105.012,105 L128.012,105 C129.116,105 130.012,104.1 130.012,103 C130.012,101.9 129.116,101 128.012,101 L105.012,101 C103.908,101 103.012,101.9 103.012,103 C103.012,104.1 103.908,105 105.012,105 L105.012,105 Z M128.012,109 L125.012,109 C123.908,109 123.012,109.89 123.012,111 C123.012,112.1 123.908,113 125.012,113 L128.012,113 C129.116,113 130.012,112.1 130.012,111 C130.012,109.89 129.116,109 128.012,109 L128.012,109 Z M74.012,105 L97.012,105 C98.116,105 99.012,104.1 99.012,103 C99.012,101.9 98.116,101 97.012,101 L74.012,101 C72.908,101 72.012,101.9 72.012,103 C72.012,104.1 72.908,105 74.012,105 L74.012,105 Z M117.012,109 L113.012,109 C111.908,109 111.012,109.89 111.012,111 C111.012,112.1 111.908,113 113.012,113 L117.012,113 C118.116,113 119.012,112.1 119.012,111 C119.012,109.89 118.116,109 117.012,109 L117.012,109 Z M105.012,109 L74.012,109 C72.908,109 72.012,109.89 72.012,111 C72.012,112.1 72.908,113 74.012,113 L105.012,113 C106.116,113 107.012,112.1 107.012,111 C107.012,109.89 106.116,109 105.012,109 L105.012,109 Z" id="TXT" fill="#BDE5D6"></path>
            <path d="M126.012,63.97 L76.012,63.97 C73.803,63.97 72.012,65.76 72.012,67.97 L72.012,90.97 C72.012,93.18 73.803,94.97 76.012,94.97 L126.012,94.97 C128.221,94.97 130.012,93.18 130.012,90.97 L130.012,67.97 C130.012,65.76 128.221,63.97 126.012,63.97" id="Container" fill="#BDE5D6"></path>
            <path d="M105.539,76.82 C106.587,76.82 107.436,75.96 107.436,74.91 C107.436,73.85 106.587,73 105.539,73 C104.492,73 103.643,73.85 103.643,74.91 C103.643,75.96 104.492,76.82 105.539,76.82 L105.539,76.82 Z M109.964,84.77 C108.364,84.08 107.583,82.13 107.12,80.95 C106.422,79.18 104.973,79.54 103.959,80.63 C102.946,81.72 102.379,81.59 102.379,81.59 C98.1,81.45 97.704,72.16 94.794,76.18 C91.884,80.2 91.001,87 91.001,87 L110.912,87 C110.912,87 111.005,85.22 109.964,84.77 L109.964,84.77 Z" id="Image" fill="#FFFFFF"></path>
            <path d="M24.012,119 L12.012,119 C10.908,119 10.012,119.89 10.012,121 L10.012,123 C10.012,124.1 10.908,125 12.012,125 L24.012,125 C25.116,125 26.012,124.1 26.012,123 L26.012,121 C26.012,119.89 25.116,119 24.012,119" id="BTN" fill="#23AA7C"></path>
            <path d="M33.012,105 L66.012,105 C67.116,105 68.012,104.1 68.012,103 C68.012,101.9 67.116,101 66.012,101 L33.012,101 C31.908,101 31.012,101.9 31.012,103 C31.012,104.1 31.908,105 33.012,105 L33.012,105 Z M66.012,109 L53.012,109 C51.908,109 51.012,109.89 51.012,111 C51.012,112.1 51.908,113 53.012,113 L66.012,113 C67.116,113 68.012,112.1 68.012,111 C68.012,109.89 67.116,109 66.012,109 L66.012,109 Z M12.012,105 L25.012,105 C26.116,105 27.012,104.1 27.012,103 C27.012,101.9 26.116,101 25.012,101 L12.012,101 C10.908,101 10.012,101.9 10.012,103 C10.012,104.1 10.908,105 12.012,105 L12.012,105 Z M45.012,109 L41.012,109 C39.908,109 39.012,109.89 39.012,111 C39.012,112.1 39.908,113 41.012,113 L45.012,113 C46.116,113 47.012,112.1 47.012,111 C47.012,109.89 46.116,109 45.012,109 L45.012,109 Z M33.012,109 L12.012,109 C10.908,109 10.012,109.89 10.012,111 C10.012,112.1 10.908,113 12.012,113 L33.012,113 C34.116,113 35.012,112.1 35.012,111 C35.012,109.89 34.116,109 33.012,109 L33.012,109 Z" id="TXT" fill="#BDE5D6"></path>
            <path d="M64.012,63.97 L14.012,63.97 C11.803,63.97 10.012,65.76 10.012,67.97 L10.012,90.97 C10.012,93.18 11.803,94.97 14.012,94.97 L64.012,94.97 C66.221,94.97 68.012,93.18 68.012,90.97 L68.012,67.97 C68.012,65.76 66.221,63.97 64.012,63.97" id="Container" fill="#BDE5D6"></path>
            <path d="M43.539,76.82 C44.586,76.82 45.435,75.96 45.435,74.91 C45.435,73.85 44.586,73 43.539,73 C42.491,73 41.642,73.85 41.642,74.91 C41.642,75.96 42.491,76.82 43.539,76.82 L43.539,76.82 Z M47.964,84.77 C46.363,84.08 45.583,82.13 45.119,80.95 C44.422,79.18 42.972,79.54 41.959,80.63 C40.945,81.72 40.379,81.59 40.379,81.59 C36.099,81.45 35.703,72.16 32.793,76.18 C29.883,80.2 29.001,87 29.001,87 L48.912,87 C48.912,87 49.004,85.22 47.964,84.77 L47.964,84.77 Z" id="Image" fill="#FFFFFF"></path>
            <path d="M126.012,30 L14.012,30 C11.803,30 10.012,31.79 10.012,34 L10.012,56 C10.012,58.21 11.803,60 14.012,60 L126.012,60 C128.221,60 130.012,58.21 130.012,56 L130.012,34 C130.012,31.79 128.221,30 126.012,30" id="Slice" fill="#55BD99"></path>
            <path d="M88.012,45 L52.012,45 C50.908,45 50.012,45.89 50.012,47 C50.012,48.1 50.908,49 52.012,49 L88.012,49 C89.116,49 90.012,48.1 90.012,47 C90.012,45.89 89.116,45 88.012,45 L88.012,45 Z M62.012,41 L78.012,41 C79.116,41 80.012,40.1 80.012,39 C80.012,37.9 79.116,37 78.012,37 L62.012,37 C60.908,37 60.012,37.9 60.012,39 C60.012,40.1 60.908,41 62.012,41 L62.012,41 Z" id="TXT" fill="#FFFFFF"></path>
        </g>
    </g>
</svg>