<svg id="图层_1" data-name="图层 1" xmlns="http://www.w3.org/2000/svg" xmlns:xlink="http://www.w3.org/1999/xlink" viewBox="0 0 102 96"><defs><style>.cls-1,.cls-2{fill:none;}.cls-1{clip-rule:evenodd;}.cls-3{clip-path:url(#clip-path);}.cls-4{clip-path:url(#clip-path-2);}.cls-5{fill:#fff;}</style><clipPath id="clip-path" transform="translate(-267.34 -232)"><path class="cls-1" d="M318.34,291.09a27,27,0,1,0-26.92-27A27,27,0,0,0,318.34,291.09Zm0-46.09a19,19,0,1,1-18.92,19A19,19,0,0,1,318.34,245Zm12.47,48.74a4,4,0,0,0-3.81.76l-8.66,7.36-8.66-7.36a4,4,0,0,0-3.81-.76c-5.6,1.79-33.53,11.4-33.53,25.26a4,4,0,0,0,4,4h84a4,4,0,0,0,4-4C364.34,305.14,336.41,295.53,330.81,293.74ZM282.44,315c4.41-4.67,15-9.87,23.78-12.94l9.53,8.11a4,4,0,0,0,5.18,0l9.53-8.11c8.82,3.07,19.37,8.27,23.78,12.94h-71.8Z"/></clipPath><clipPath id="clip-path-2" transform="translate(-267.34 -232)"><rect class="cls-2" x="-304.66" y="-2554" width="2800" height="5000"/></clipPath></defs><title>未标题-2</title><g class="cls-3"><g class="cls-4"><rect class="cls-5" width="102" height="96"/></g></g></svg>